<?xml version="1.0" encoding="utf-8"?>
<!-- Generator: Adobe Illustrator 16.0.2, SVG Export Plug-In . SVG Version: 6.00 Build 0)  -->
<!DOCTYPE svg PUBLIC "-//W3C//DTD SVG 1.1//EN" "http://www.w3.org/Graphics/SVG/1.1/DTD/svg11.dtd">
<svg version="1.1" id="Layer_1" xmlns="http://www.w3.org/2000/svg" xmlns:xlink="http://www.w3.org/1999/xlink" x="0px" y="0px"
	 width="84px" height="84px" viewBox="0 0 84 84" enable-background="new 0 0 84 84" xml:space="preserve">
<rect fill="#1ABC9C" width="83.989" height="83.989"/>
<path fill="#FFFFFF" d="M60.057,60.065H23.932V23.94h36.125V60.065z M55.962,28.036H28.027v27.935h27.935V28.036z"/>
<rect x="28" y="28.011" fill="#1ABC9C" width="27.96" height="27.96"/>
<rect x="32.979" y="33.848" fill="#FFFFFF" width="18.042" height="4.31"/>
<rect x="32.979" y="39.848" fill="#FFFFFF" width="18.042" height="4.31"/>
<rect x="32.979" y="45.848" fill="#FFFFFF" width="18.042" height="4.311"/>
<rect x="19" y="13" fill="#1ABC9C" width="51.96" height="10.96"/>
<rect x="30" y="32" fill="#1ABC9C" width="22.96" height="1.96"/>
<rect x="30" y="38" fill="#1ABC9C" width="22.96" height="1.96"/>
<rect x="30" y="44.04" fill="#1ABC9C" width="22.96" height="1.96"/>
<rect x="30.04" y="50.04" fill="#1ABC9C" width="22.96" height="1.96"/>
<rect x="51.04" y="31.04" fill="#1ABC9C" width="1.96" height="22.96"/>
<rect x="31" y="30.04" fill="#1ABC9C" width="1.96" height="22.96"/>
<rect x="19.04" y="60" fill="#1ABC9C" width="51.96" height="10.96"/>
<rect x="13.04" y="14" fill="#1ABC9C" width="10.96" height="51.96"/>
<rect x="60.04" y="19" fill="#1ABC9C" width="10.96" height="51.96"/>
</svg>
