<?xml version="1.0" encoding="utf-8"?>
<!-- Generator: Adobe Illustrator 16.0.2, SVG Export Plug-In . SVG Version: 6.00 Build 0)  -->
<!DOCTYPE svg PUBLIC "-//W3C//DTD SVG 1.1//EN" "http://www.w3.org/Graphics/SVG/1.1/DTD/svg11.dtd">
<svg version="1.1" id="Layer_1" xmlns="http://www.w3.org/2000/svg" xmlns:xlink="http://www.w3.org/1999/xlink" x="0px" y="0px"
	 width="92px" height="92px" viewBox="0 0 92 92" enable-background="new 0 0 92 92" xml:space="preserve">
<rect fill="#CACCCD" width="92" height="91.984"/>
<g>
	<path fill-rule="evenodd" clip-rule="evenodd" fill="#353535" d="M33.53,53.567c0-5.49,0-10.935,0-16.391
		c0.05-0.011,0.09-0.025,0.129-0.025c2.713,0.001,5.426-0.016,8.139,0.016c1.1,0.014,2.169,0.248,3.084,0.913
		c1.253,0.909,1.652,2.198,1.575,3.683c-0.069,1.35-0.678,2.357-1.943,2.968c0.067,0.046,0.102,0.081,0.143,0.099
		c1.767,0.719,2.456,2.323,2.324,4.09c-0.194,2.629-1.929,4.334-4.613,4.564c-0.881,0.074-1.771,0.076-2.655,0.08
		c-1.954,0.012-3.909,0.004-5.864,0.004C33.753,53.567,33.658,53.567,33.53,53.567z M36.835,50.704c0.234,0,0.437,0,0.639,0
		c1.303-0.01,2.606,0.006,3.908-0.037c1.159-0.037,1.852-0.617,2.073-1.639c0.286-1.32-0.257-2.277-1.462-2.561
		c-0.228-0.053-0.464-0.09-0.697-0.092c-1.431-0.016-2.861-0.02-4.292-0.027c-0.051,0-0.103,0.014-0.169,0.021
		C36.835,47.808,36.835,49.233,36.835,50.704z M36.841,40.029c0,1.22,0,2.398,0,3.571c0.043,0.01,0.063,0.019,0.083,0.019
		c1.238,0.001,2.477,0.007,3.714,0c0.308-0.002,0.619-0.023,0.923-0.067c1.277-0.189,1.889-1.129,1.547-2.353
		c-0.145-0.519-0.467-0.864-0.993-0.976c-0.437-0.09-0.883-0.178-1.325-0.186C39.479,40.014,38.168,40.029,36.841,40.029z"/>
	<path fill-rule="evenodd" clip-rule="evenodd" fill="#353535" d="M51.133,48.39c-0.031,1.732,1.1,2.93,2.764,2.996
		c1.077,0.045,1.981-0.254,2.557-1.242c0.037-0.063,0.125-0.137,0.189-0.137c1.034-0.01,2.066-0.006,3.196-0.006
		c-0.149,0.402-0.235,0.768-0.411,1.082c-0.613,1.109-1.485,1.971-2.685,2.408c-2.158,0.789-4.27,0.689-6.281-0.5
		c-1.223-0.723-1.994-1.779-2.308-3.164c-0.387-1.699-0.391-3.396,0.198-5.049c0.732-2.058,2.252-3.22,4.375-3.58
		c1.26-0.213,2.52-0.134,3.721,0.338c1.974,0.773,3.016,2.31,3.364,4.336c0.14,0.813,0.128,1.65,0.188,2.518
		C56.998,48.39,54.077,48.39,51.133,48.39z M56.598,46.259c0.102-1.341-1.07-2.461-2.55-2.526c-1.803-0.078-2.714,1.205-2.803,2.526
		C53.03,46.259,54.814,46.259,56.598,46.259z"/>
	<path fill-rule="evenodd" clip-rule="evenodd" fill="#353535" d="M57.252,39.748c-2.367,0-4.721,0-7.094,0c0-0.546,0-1.075,0-1.627
		c2.361,0,4.716,0,7.094,0C57.252,38.657,57.252,39.193,57.252,39.748z"/>
</g>
</svg>
