<?xml version="1.0" encoding="utf-8"?>
<!-- Generator: Adobe Illustrator 16.0.2, SVG Export Plug-In . SVG Version: 6.00 Build 0)  -->
<!DOCTYPE svg PUBLIC "-//W3C//DTD SVG 1.1//EN" "http://www.w3.org/Graphics/SVG/1.1/DTD/svg11.dtd">
<svg version="1.1" id="Layer_1" xmlns="http://www.w3.org/2000/svg" xmlns:xlink="http://www.w3.org/1999/xlink" x="0px" y="0px"
	 width="126px" height="126px" viewBox="0 0 126 126" enable-background="new 0 0 126 126" xml:space="preserve">
<rect fill="#CCCCCC" width="126" height="126"/>
<polygon fill="#2C3E50" points="83.953,63.008 83.953,83.967 42.046,83.967 42.046,42.059 63.008,42.059 63.008,35.915 
	35.903,35.915 35.903,90.109 90.097,90.109 90.097,63.008 "/>
<rect x="42.005" y="42.021" fill="#CCCCCC" width="41.945" height="41.945"/>
<rect x="28.503" y="19.502" fill="#CCCCCC" width="77.95" height="16.442"/>
<rect x="28.563" y="90.012" fill="#CCCCCC" width="77.95" height="16.441"/>
<rect x="19.563" y="21.003" fill="#CCCCCC" width="16.442" height="77.949"/>
<rect x="90.071" y="28.503" fill="#CCCCCC" width="16.442" height="77.95"/>
<g>
	<path fill="#2C3E50" d="M66.044,55.507v-0.932L77.383,29.98h2.777l11.375,24.595v0.932h-6.294l-1.477-3.165h-9.95l-1.478,3.165
		H66.044z M75.906,46.822h5.767l-2.919-6.61L75.906,46.822z"/>
</g>
</svg>
