<?xml version="1.0" encoding="utf-8"?>
<!-- Generator: Adobe Illustrator 16.0.2, SVG Export Plug-In . SVG Version: 6.00 Build 0)  -->
<!DOCTYPE svg PUBLIC "-//W3C//DTD SVG 1.1//EN" "http://www.w3.org/Graphics/SVG/1.1/DTD/svg11.dtd">
<svg version="1.1" id="Layer_1" xmlns="http://www.w3.org/2000/svg" xmlns:xlink="http://www.w3.org/1999/xlink" x="0px" y="0px"
	 width="92px" height="92px" viewBox="0 0 92 92" enable-background="new 0 0 92 92" xml:space="preserve">
<rect fill="#D9DCDD" width="92" height="92"/>
<path fill="#353535" d="M35.012,48.404c0,0-3.217-4.794-1.515-9.211C35.201,34.776,39.184,32,46.404,32
	c7.22,0,10.375,4.102,10.375,7.256c0,3.154-1.389,4.417-1.389,4.417s4.479,1.451,4.479,7.19c0,5.742-6.31,9.592-13.062,9.592
	c-6.75,0-12.998-2.158-12.998-8.391C33.813,49.352,35.012,48.404,35.012,48.404z M39.807,45.881c1.451,0.126,2.02,1.072,2.02,1.072
	s-2.65,0.255-2.209,2.713c0.442,2.461,2.334,2.02,3.344,0.631c1.01-1.388,0.252-5.804-0.316-9.59
	c-0.568-3.785,2.335-4.101,3.345-4.164c1.008-0.063,1.702,0.694,1.325,1.452c-0.379,0.757-0.442,4.291-0.442,4.291
	s1.325-0.442,2.146-0.442s2.146,0.189,2.713,0.378c0.567,0.19,1.072-2.713,1.072-2.713c0-0.694,0.625-5.237-6.939-5.237
	s-9.464,5.3-9.464,7.319s0.694,4.683,0.694,4.683S38.356,45.755,39.807,45.881z M43.087,54.523c-2.334,0-3.659-1.387-3.659-1.387
	c1.956,5.805,8.14,4.922,8.14,4.922c3.658,0,7.949-3.473,7.949-7.511c0-3.405-2.463-4.92-2.463-4.92s-1.135,0.645-3.091,0.645
	c-1.135,0-2.901-0.33-2.901-0.33S46.999,54.523,43.087,54.523z"/>
</svg>
