<?xml version="1.0" encoding="utf-8"?>
<!-- Generator: Adobe Illustrator 16.0.2, SVG Export Plug-In . SVG Version: 6.00 Build 0)  -->
<!DOCTYPE svg PUBLIC "-//W3C//DTD SVG 1.1//EN" "http://www.w3.org/Graphics/SVG/1.1/DTD/svg11.dtd">
<svg version="1.1" id="Layer_1" xmlns="http://www.w3.org/2000/svg" xmlns:xlink="http://www.w3.org/1999/xlink" x="0px" y="0px"
	 width="92px" height="92px" viewBox="0 0 92 92" enable-background="new 0 0 92 92" xml:space="preserve">
<rect fill="#CACCCD" width="92" height="92"/>
<path fill="#353535" d="M35.012,48.404c0,0-3.217-4.794-1.515-9.211C35.201,34.776,39.184,32,46.404,32s10.375,4.102,10.375,7.256
	s-1.389,4.417-1.389,4.417s4.48,1.451,4.48,7.191c0,5.742-6.31,9.591-13.061,9.591s-12.998-2.158-12.998-8.391
	C33.813,49.352,35.012,48.404,35.012,48.404z M39.807,45.881c1.451,0.126,2.02,1.072,2.02,1.072s-2.65,0.255-2.209,2.713
	c0.442,2.461,2.334,2.02,3.344,0.631c1.01-1.388,0.252-5.804-0.316-9.59c-0.568-3.785,2.335-4.101,3.345-4.164
	c1.008-0.063,1.703,0.694,1.325,1.452c-0.378,0.757-0.442,4.291-0.442,4.291s1.325-0.442,2.146-0.442
	c0.82,0,2.145,0.189,2.712,0.378c0.568,0.19,1.073-2.713,1.073-2.713c0-0.694,0.625-5.237-6.94-5.237
	c-7.564,0-9.464,5.3-9.464,7.319c0,2.019,0.694,4.683,0.694,4.683S38.356,45.755,39.807,45.881z M43.087,54.524
	c-2.334,0-3.659-1.387-3.659-1.387c1.956,5.804,8.14,4.921,8.14,4.921c3.658,0,7.95-3.472,7.95-7.51c0-3.405-2.463-4.92-2.463-4.92
	s-1.135,0.645-3.091,0.645c-1.135,0-2.902-0.33-2.902-0.33S46.999,54.524,43.087,54.524z"/>
</svg>
