<?xml version="1.0" encoding="utf-8"?>
<!-- Generator: Adobe Illustrator 16.0.2, SVG Export Plug-In . SVG Version: 6.00 Build 0)  -->
<!DOCTYPE svg PUBLIC "-//W3C//DTD SVG 1.1//EN" "http://www.w3.org/Graphics/SVG/1.1/DTD/svg11.dtd">
<svg version="1.1" id="Layer_1" xmlns="http://www.w3.org/2000/svg" xmlns:xlink="http://www.w3.org/1999/xlink" x="0px" y="0px"
	 width="92px" height="92px" viewBox="0 0 92 92" enable-background="new 0 0 92 92" xml:space="preserve">
<rect fill="#CCCCCC" width="92" height="92"/>
<path fill-rule="evenodd" clip-rule="evenodd" fill="#353535" d="M45.696,63c-9.468-0.019-17.174-7.756-17.17-17.243
	c0.004-9.475,7.725-17.203,17.203-17.22c9.481-0.017,17.361,7.883,17.27,17.313C62.908,55.344,55.166,63.016,45.696,63z
	 M36.767,57.316c0.407,0.312,0.708,0.588,1.048,0.799c3.892,2.424,8.029,2.904,12.427,1.648c1.055-0.301,1.268-0.826,0.989-1.773
	c-0.861-2.951-1.705-5.91-2.57-8.864c-0.086-0.295-0.272-0.562-0.431-0.879C43.37,50.033,39.437,52.799,36.767,57.316z
	 M34.791,55.529c3.131-4.647,7.094-8.082,12.373-9.781c-0.655-2.425-0.759-2.434-2.945-1.975c-2.324,0.488-4.667,0.911-7.021,1.22
	c-1.982,0.261-3.99,0.319-6.08,0.475C31.01,49.316,32.27,52.566,34.791,55.529z M31.374,42.779c4.652-0.09,9.03-0.618,13.6-1.835
	c-1.841-2.873-3.604-5.621-5.41-8.438C35.231,34.699,32.59,37.986,31.374,42.779z M47.85,39.967
	c4.216-2.355,5.923-3.424,7.432-5.179c-3.02-3.064-9.688-4.684-12.683-3.082C44.333,34.435,46.067,37.163,47.85,39.967z
	 M57.346,36.961c-2.091,2.125-4.069,3.236-8.213,5.689c0.1,0.223,0.367,0.651,0.481,1.115c0.283,1.133,0.947,1.342,2.07,1.317
	c2.293-0.051,4.591,0.128,6.887,0.236c0.586,0.026,1.167,0.135,1.758,0.206C60.5,42.625,59.103,38.823,57.346,36.961z
	 M51.295,47.556c0.944,3.425,1.871,6.783,2.826,10.252c3.197-2.284,5.132-5.271,5.958-8.976c0.055-0.24-0.286-0.782-0.531-0.843
	C56.833,47.316,54.086,46.998,51.295,47.556z"/>
</svg>
