<?xml version="1.0" encoding="utf-8"?>
<!-- Generator: Adobe Illustrator 16.0.2, SVG Export Plug-In . SVG Version: 6.00 Build 0)  -->
<!DOCTYPE svg PUBLIC "-//W3C//DTD SVG 1.1//EN" "http://www.w3.org/Graphics/SVG/1.1/DTD/svg11.dtd">
<svg version="1.1" id="Layer_1" xmlns="http://www.w3.org/2000/svg" xmlns:xlink="http://www.w3.org/1999/xlink" x="0px" y="0px"
	 width="126px" height="126px" viewBox="0 0 126 126" enable-background="new 0 0 126 126" xml:space="preserve">
<g>
	<rect fill="#ECF0F1" width="126" height="126"/>
	<g>
		<rect x="43.68" y="82.698" fill="#2C3E50" width="19.472" height="6.001"/>
		<path fill="#2C3E50" d="M73.757,100.799H33.004V46.604h40.753V100.799z M67.611,52.748H39.149v41.908h28.462V52.748z"/>
		<rect x="43.68" y="70.696" fill="#2C3E50" width="19.472" height="6.001"/>
		<rect x="43.68" y="58.695" fill="#2C3E50" width="19.472" height="6.001"/>
		<g>
			<polygon fill="#2C3E50" points="52.363,24.003 52.363,42.099 58.61,42.193 58.506,30.146 86.969,30.146 86.969,72.055 
				78.112,72.196 78.112,78.198 93.115,78.198 93.115,24.003 			"/>
			<polygon fill="#2C3E50" points="78.112,48.096 78.112,51.068 78.112,54.096 82.51,54.096 82.51,48.096 			"/>
			<rect x="78.112" y="60.097" fill="#2C3E50" width="4.397" height="6"/>
			<rect x="63.038" y="36.094" fill="#2C3E50" width="19.472" height="6.001"/>
		</g>
	</g>
</g>
</svg>
