<?xml version="1.0" encoding="utf-8"?>
<!-- Generator: Adobe Illustrator 16.0.2, SVG Export Plug-In . SVG Version: 6.00 Build 0)  -->
<!DOCTYPE svg PUBLIC "-//W3C//DTD SVG 1.1//EN" "http://www.w3.org/Graphics/SVG/1.1/DTD/svg11.dtd">
<svg version="1.1" id="Layer_1" xmlns="http://www.w3.org/2000/svg" xmlns:xlink="http://www.w3.org/1999/xlink" x="0px" y="0px"
	 width="126px" height="126px" viewBox="0 0 126 126" enable-background="new 0 0 126 126" xml:space="preserve">
<rect fill="#CCCCCC" width="125.989" height="125.989"/>
<path fill="#2C3E50" d="M90.088,90.103H35.9v-54.19h54.188V90.103z M83.946,42.055H42.043v41.904h41.903V42.055z"/>
<rect x="28.501" y="19.501" fill="#CCCCCC" width="77.943" height="16.44"/>
<rect x="28.562" y="90.004" fill="#CCCCCC" width="77.942" height="16.44"/>
<rect x="19.561" y="21.001" fill="#CCCCCC" width="16.441" height="77.943"/>
<rect x="34.238" y="71.943" transform="matrix(0.7071 -0.7071 0.7071 0.7071 -39.0794 54.0396)" fill="#2C3E50" width="22.908" height="4.5"/>
<rect x="55.359" y="65.943" transform="matrix(0.7071 -0.7071 0.7071 0.7071 -28.6507 67.2168)" fill="#2C3E50" width="22.908" height="4.5"/>
<rect x="49.291" y="68.313" transform="matrix(-0.7071 -0.7071 0.7071 -0.7071 44.7555 159.6628)" fill="#2C3E50" width="12.302" height="4.5"/>
<rect x="68.894" y="65.567" transform="matrix(-0.7071 -0.7071 0.7071 -0.7071 88.2987 172.2113)" fill="#2C3E50" width="21.848" height="4.5"/>
<circle fill="#2C3E50" cx="54.002" cy="52.502" r="4.5"/>
</svg>
