<?xml version="1.0" encoding="utf-8"?>
<!-- Generator: Adobe Illustrator 16.0.2, SVG Export Plug-In . SVG Version: 6.00 Build 0)  -->
<!DOCTYPE svg PUBLIC "-//W3C//DTD SVG 1.1//EN" "http://www.w3.org/Graphics/SVG/1.1/DTD/svg11.dtd">
<svg version="1.1" id="Layer_1" xmlns="http://www.w3.org/2000/svg" xmlns:xlink="http://www.w3.org/1999/xlink" x="0px" y="0px"
	 width="126px" height="126px" viewBox="0 0 126 126" enable-background="new 0 0 126 126" xml:space="preserve">
<rect x="28.503" y="19.502" fill="#FFFFFF" width="77.95" height="16.442"/>
<rect x="28.564" y="90.012" fill="#FFFFFF" width="77.95" height="16.441"/>
<rect x="19.563" y="21.003" fill="#FFFFFF" width="16.442" height="77.95"/>
<rect fill="#CCCCCC" width="126" height="126"/>
<path fill="#2C3E50" d="M90.096,84.011H35.903V44.916h54.193V84.011z M83.953,51.06H42.046v26.808h41.907V51.06z"/>
<path fill="#2C3E50" d="M63.008,68.602c-11.645,0-24.91-16.848-26.384-18.769l4.761-3.655c3.511,4.568,14.239,16.423,21.624,16.423
	c7.383,0,18.113-11.855,21.624-16.423l4.76,3.655C87.918,51.753,74.652,68.602,63.008,68.602z"/>
</svg>
