<?xml version="1.0" encoding="utf-8"?>
<!-- Generator: Adobe Illustrator 16.0.2, SVG Export Plug-In . SVG Version: 6.00 Build 0)  -->
<!DOCTYPE svg PUBLIC "-//W3C//DTD SVG 1.1//EN" "http://www.w3.org/Graphics/SVG/1.1/DTD/svg11.dtd">
<svg version="1.1" id="Layer_1" xmlns="http://www.w3.org/2000/svg" xmlns:xlink="http://www.w3.org/1999/xlink" x="0px" y="0px"
	 width="84px" height="84px" viewBox="0 0 84 84" enable-background="new 0 0 84 84" xml:space="preserve">
<g>
	<rect fill="#CECECE" width="83.989" height="83.989"/>
	<g>
		<path fill="#FFFFFF" d="M38.733,56.368c-0.432,0.432-0.947,0.647-1.548,0.647c-0.6,0-1.116-0.21-1.548-0.629
			c-0.432-0.421-0.648-0.943-0.648-1.566c0-0.624,0.217-1.141,0.648-1.549l10.944-10.979L35.638,31.348
			c-0.432-0.408-0.648-0.924-0.648-1.548c0-0.624,0.223-1.152,0.666-1.584c0.444-0.432,0.961-0.648,1.548-0.648
			c0.589,0,1.099,0.216,1.53,0.648L52.81,42.292L38.733,56.368z"/>
	</g>
</g>
</svg>
