<?xml version="1.0" encoding="utf-8"?>
<!-- Generator: Adobe Illustrator 16.0.2, SVG Export Plug-In . SVG Version: 6.00 Build 0)  -->
<!DOCTYPE svg PUBLIC "-//W3C//DTD SVG 1.1//EN" "http://www.w3.org/Graphics/SVG/1.1/DTD/svg11.dtd">
<svg version="1.1" id="Layer_1" xmlns="http://www.w3.org/2000/svg" xmlns:xlink="http://www.w3.org/1999/xlink" x="0px" y="0px"
	 width="84px" height="84px" viewBox="0 0 84 84" enable-background="new 0 0 84 84" xml:space="preserve">
<rect fill="#DF0024" width="83.989" height="83.989"/>
<path fill="#FFFFFF" d="M60.057,60.065H23.932V23.94h36.125V60.065z M55.962,28.036H28.027v27.935h27.935V28.036z"/>
<rect x="28" y="28.011" fill="#DF0024" width="27.96" height="27.96"/>
<rect x="19" y="13" fill="#DF0024" width="51.96" height="10.96"/>
<rect x="30" y="32" fill="#DF0024" width="22.96" height="1.96"/>
<rect x="30" y="38" fill="#DF0024" width="22.96" height="1.96"/>
<rect x="30" y="44.04" fill="#DF0024" width="22.96" height="1.96"/>
<rect x="30.04" y="50.04" fill="#DF0024" width="22.96" height="1.96"/>
<rect x="51.04" y="31.04" fill="#DF0024" width="1.96" height="22.96"/>
<rect x="31" y="30.04" fill="#DF0024" width="0.96" height="22.96"/>
<rect x="19.04" y="60" fill="#DF0024" width="51.96" height="10.96"/>
<rect x="13.04" y="14" fill="#DF0024" width="10.96" height="51.96"/>
<g>
	<path fill="#FFFFFF" d="M45.582,34.952c0.469,0.455,0.704,0.998,0.704,1.628c0,0.631-0.235,1.173-0.704,1.628L41.49,42.3
		l4.092,4.093c0.469,0.454,0.704,0.997,0.704,1.627c0,0.631-0.235,1.174-0.704,1.629c-0.47,0.454-1.005,0.682-1.605,0.682
		c-0.602,0-1.145-0.228-1.628-0.682L35,42.3l7.348-7.348c0.44-0.455,0.982-0.682,1.628-0.682
		C44.621,34.27,45.156,34.498,45.582,34.952z"/>
</g>
</svg>
