<?xml version="1.0" encoding="utf-8"?>
<!-- Generator: Adobe Illustrator 16.0.2, SVG Export Plug-In . SVG Version: 6.00 Build 0)  -->
<!DOCTYPE svg PUBLIC "-//W3C//DTD SVG 1.1//EN" "http://www.w3.org/Graphics/SVG/1.1/DTD/svg11.dtd">
<svg version="1.1" id="Layer_1" xmlns="http://www.w3.org/2000/svg" xmlns:xlink="http://www.w3.org/1999/xlink" x="0px" y="0px"
	 width="126px" height="126px" viewBox="0 0 126 126" enable-background="new 0 0 126 126" xml:space="preserve">
<rect fill="#ECF0F1" width="125.989" height="125.989"/>
<rect x="28.562" y="90.004" fill="#ECF0F1" width="77.942" height="16.44"/>
<rect x="36.002" y="72.063" fill="#2C3E50" width="54.002" height="6"/>
<rect x="60.002" y="74.407" fill="#2C3E50" width="6" height="8.46"/>
<path fill="#FFFFFF" d="M42.043,75.003"/>
<path fill="#2C3E50" d="M35.9,85.563 M83.946,76.563V43.616H42.043v32.948H35.9V37.473h54.188v39.091H83.946z"/>
<rect x="90.063" y="21.061" fill="#ECF0F1" width="16.44" height="77.943"/>
<rect x="19.561" y="22.561" fill="#ECF0F1" width="16.441" height="77.943"/>
<rect x="42.002" y="43.578" fill="#ECF0F1" width="41.942" height="28.103"/>
<rect x="28.501" y="21.061" fill="#ECF0F1" width="77.943" height="16.441"/>
<rect x="49.502" y="81.063" fill="#2C3E50" width="27.002" height="6"/>
<rect x="30.061" y="87.063" fill="#ECF0F1" width="77.943" height="16.44"/>
<rect x="22.501" y="78.004" fill="#ECF0F1" width="37.443" height="2.94"/>
<rect x="66.061" y="78.004" fill="#ECF0F1" width="37.443" height="2.94"/>
</svg>
