<?xml version="1.0" encoding="utf-8"?>
<!-- Generator: Adobe Illustrator 16.0.2, SVG Export Plug-In . SVG Version: 6.00 Build 0)  -->
<!DOCTYPE svg PUBLIC "-//W3C//DTD SVG 1.1//EN" "http://www.w3.org/Graphics/SVG/1.1/DTD/svg11.dtd">
<svg version="1.1" id="Layer_1" xmlns="http://www.w3.org/2000/svg" xmlns:xlink="http://www.w3.org/1999/xlink" x="0px" y="0px"
	 width="126px" height="126px" viewBox="0 0 126 126" enable-background="new 0 0 126 126" xml:space="preserve">
<g>
	<rect fill="#ECF0F1" width="126" height="126"/>
	<rect x="28.503" y="19.502" fill="#ECF0F1" width="77.95" height="16.442"/>
	<rect x="28.564" y="90.012" fill="#ECF0F1" width="77.95" height="16.441"/>
	<rect x="19.563" y="21.003" fill="#ECF0F1" width="16.442" height="77.95"/>
	<rect x="90.071" y="24.003" fill="#ECF0F1" width="16.442" height="77.95"/>
	<polygon fill="#2C3E50" points="72.009,93.011 55.507,93.012 55.507,88.512 71.962,88.512 	"/>
	<path fill="#2C3E50" d="M71.259,84.911H55.976l0.135-2.529c0.214-3.994-0.016-8.248-0.495-9.597
		c-7.804-3.26-13.011-11.036-13.011-19.528c0-11.663,9.489-21.152,21.153-21.152s21.153,9.489,21.153,21.152
		c0,8.306-4.979,15.927-12.502,19.308c-0.337,1.827-0.76,6.319-1.006,10.101L71.259,84.911z M61.002,80.11h5.765
		c0.78-10.78,1.508-11.063,2.875-11.592c6.263-2.416,10.468-8.549,10.468-15.262c0-9.017-7.335-16.352-16.352-16.352
		c-9.017,0-16.352,7.335-16.352,16.352c0,6.71,4.204,12.843,10.461,15.259C58.902,68.916,61.226,69.814,61.002,80.11z"/>
</g>
</svg>
