<?xml version="1.0" encoding="utf-8"?>
<!-- Generator: Adobe Illustrator 16.0.2, SVG Export Plug-In . SVG Version: 6.00 Build 0)  -->
<!DOCTYPE svg PUBLIC "-//W3C//DTD SVG 1.1//EN" "http://www.w3.org/Graphics/SVG/1.1/DTD/svg11.dtd">
<svg version="1.1" id="Layer_1" xmlns="http://www.w3.org/2000/svg" xmlns:xlink="http://www.w3.org/1999/xlink" x="0px" y="0px"
	 width="126px" height="126px" viewBox="0 0 126 126" enable-background="new 0 0 126 126" xml:space="preserve">
<rect fill="#CCCCCC" width="126" height="126"/>
<rect x="28.503" y="19.502" fill="#CCCCCC" width="77.95" height="16.442"/>
<rect x="28.564" y="90.012" fill="#CCCCCC" width="77.95" height="16.441"/>
<rect x="19.563" y="21.003" fill="#CCCCCC" width="16.442" height="77.95"/>
<rect x="90.071" y="28.503" fill="#CCCCCC" width="16.442" height="77.95"/>
<g>
	<path fill="#2C3E50" d="M63.758,71.435c-10.169,0-18.444-8.273-18.444-18.442c0-10.17,8.274-18.443,18.444-18.443
		c10.17,0,18.443,8.273,18.443,18.443C82.201,63.162,73.929,71.435,63.758,71.435z M63.758,40.549
		c-6.861,0-12.442,5.582-12.442,12.443c0,6.861,5.582,12.442,12.442,12.442s12.443-5.582,12.443-12.442
		C76.201,46.131,70.619,40.549,63.758,40.549z"/>
	<path fill="#2C3E50" d="M93.012,91.512H34.505v-3c0-10.822,5.933-20.716,15.485-25.818l2.827,5.293
		c-6.701,3.58-11.163,10.125-12.119,17.524H86.82c-0.879-6.872-4.76-12.984-10.753-16.73l3.182-5.089
		c8.618,5.388,13.763,14.666,13.763,24.82V91.512z"/>
</g>
</svg>
