<?xml version="1.0" encoding="utf-8"?>
<!-- Generator: Adobe Illustrator 16.0.2, SVG Export Plug-In . SVG Version: 6.00 Build 0)  -->
<!DOCTYPE svg PUBLIC "-//W3C//DTD SVG 1.1//EN" "http://www.w3.org/Graphics/SVG/1.1/DTD/svg11.dtd">
<svg version="1.1" id="Layer_1" xmlns="http://www.w3.org/2000/svg" xmlns:xlink="http://www.w3.org/1999/xlink" x="0px" y="0px"
	 width="84px" height="84px" viewBox="0 0 84 84" enable-background="new 0 0 84 84" xml:space="preserve">
<rect fill="#CECECE" width="83.989" height="83.989"/>
<g>
	<path fill="#FFFFFF" d="M31.18,42.292l14.076-14.076c0.432-0.432,0.941-0.648,1.53-0.648c0.587,0,1.104,0.216,1.548,0.648
		C48.777,28.648,49,29.176,49,29.8c0,0.625-0.217,1.141-0.648,1.548L37.407,42.292l10.944,10.979C48.783,53.68,49,54.196,49,54.82
		c0,0.623-0.217,1.146-0.648,1.566c-0.432,0.419-0.948,0.629-1.548,0.629c-0.601,0-1.116-0.216-1.548-0.647L31.18,42.292z"/>
</g>
</svg>
