<svg preserveAspectRatio="none" width="100%" height="100%" overflow="visible" style="display: block;" viewBox="0 0 240 200" fill="none" xmlns="http://www.w3.org/2000/svg">
<path id="image placeholder" fill-rule="evenodd" clip-rule="evenodd" d="M0.149843 42.1031C-0.750713 37.2612 2.50144 32.6193 7.39314 31.7643L188.345 0.136193C193.213 -0.714686 197.855 2.50988 198.708 7.33602L206.312 50.3339H231.952C236.397 50.3339 240 53.9055 240 58.3112V192.023C240 196.428 236.397 200 231.952 200H55.6919C51.2469 200 47.6436 196.428 47.6436 192.023V185.078L36.1408 187.089C31.3028 187.935 26.6822 184.755 25.7915 179.966L0.149843 42.1031ZM185.902 14.5177L192.236 50.3339H55.6919C51.2469 50.3339 47.6436 53.9054 47.6436 58.3112V171.123L38.5411 172.715L14.6836 44.4445L185.902 14.5177ZM61.5082 64.0763V186.258H226.135V64.0763H61.5082ZM74.5727 80.5762C74.5727 79.4748 75.4736 78.5819 76.5848 78.5819H212.596C213.707 78.5819 214.608 79.4748 214.608 80.5762V136.164C214.608 137.97 212.378 138.846 211.13 137.53L179.13 103.786C178.34 102.953 177.006 102.948 176.209 103.774L127.166 154.626C126.548 155.266 125.579 155.426 124.786 155.019L104.858 144.789C104.211 144.457 103.434 144.498 102.826 144.895L77.6916 161.305C76.3538 162.179 74.5727 161.228 74.5727 159.64V80.5762ZM118.431 106.069C118.431 113.238 112.575 119.05 105.351 119.05C98.1266 119.05 92.2704 113.238 92.2704 106.069C92.2704 98.8995 98.1266 93.0876 105.351 93.0876C112.575 93.0876 118.431 98.8995 118.431 106.069Z" fill="var(--fill-0, #C2E2FF)"/>
</svg>
