<svg preserveAspectRatio="none" width="100%" height="100%" overflow="visible" style="display: block;" viewBox="0 0 17.95 17.95" fill="none" xmlns="http://www.w3.org/2000/svg">
<g id="img">
<path id="Vector" d="M8.97473 0C4.0259 0 0 4.02649 0 8.97473C0 13.923 4.0259 17.95 8.97473 17.95C13.9236 17.95 17.95 13.9236 17.95 8.97473C17.95 4.0259 13.9236 0 8.97473 0Z" fill="var(--fill-0, white)"/>
<path id="Vector_2" d="M13.8968 2.82893C12.8 5.67847 9.88914 5.30953 7.83405 5.38084L7.33487 7.32572C9.8691 5.26297 13.219 7.30804 12.8607 10.4246C12.6196 12.5238 11.1233 13.8965 9.54024 14.2913C7.8152 14.7216 5.9045 14.078 5.04758 12.3199C4.92909 12.0742 4.82557 11.8215 4.73757 11.5632L6.55692 11.0964C6.59207 11.2015 6.64039 11.3017 6.70072 11.3946C7.91833 13.3584 10.386 12.3765 10.6647 10.3397C10.9476 8.26692 8.03974 7.16247 6.71605 9.58473L5.1018 8.894L5.07351 8.88221L5.67406 6.47174C5.77013 6.04269 6.05597 4.9235 6.08661 4.81506C6.13789 4.64768 6.14908 4.59228 6.20448 4.44023C7.23822 1.72388 9.28211 1.44983 11.0961 1.44983C11.1686 1.44983 11.2405 1.44983 11.3119 1.44983C9.43461 0.861872 7.40552 0.995682 5.62175 1.82507C3.83798 2.65446 2.42795 4.11971 1.66768 5.93402C0.907413 7.74833 0.851629 9.78107 1.51125 11.6343C2.17088 13.4876 3.49841 15.028 5.23401 15.954C6.96961 16.8799 8.98831 17.1248 10.895 16.6407C12.8016 16.1566 14.459 14.9783 15.5426 13.3365C16.6262 11.6947 17.0581 9.70759 16.7537 7.76413C16.4493 5.82066 15.4305 4.06077 13.8968 2.82893" fill="var(--fill-0, #E52322)"/>
<path id="Vector_3" d="M13.1802 2.29331C12.8749 3.24164 12.3421 3.83869 11.5187 4.15991C10.6617 4.4935 9.61908 4.50235 8.61005 4.51354C8.06781 4.51767 7.54915 4.5218 7.07292 4.57897C7.92871 2.51138 9.46525 2.30745 11.1038 2.30745C11.3319 2.30745 11.5605 2.31217 11.7816 2.31688C12.0026 2.3216 12.2112 2.32514 12.4193 2.32514C12.7175 2.32514 12.9627 2.31629 13.1802 2.29626" fill="var(--fill-0, #00923A)"/>
</g>
</svg>
