<svg preserveAspectRatio="none" width="100%" height="100%" overflow="visible" style="display: block;" viewBox="0 0 15.2728 15.2727" fill="none" xmlns="http://www.w3.org/2000/svg">
<g id="img">
<path id="Vector 4" d="M9.6246 4.82454L7.6268 6.81548L5.629 4.82454C4.52495 3.72428 4.52495 1.92545 5.629 0.825193C6.73304 -0.275064 8.52055 -0.275064 9.6246 0.825193C10.7286 1.92545 10.7286 3.70682 9.6246 4.82454Z" fill="var(--fill-0, #5FAF2D)"/>
<path id="Vector 3" d="M5.629 10.4482L7.6268 8.43976L9.6246 10.4482C10.7286 11.5484 10.7286 13.3473 9.6246 14.4475C8.52055 15.5478 6.73304 15.5478 5.629 14.4475C4.52495 13.3298 4.52495 11.5484 5.629 10.4482Z" fill="var(--fill-0, #0B6F00)"/>
<path id="Vector 2" d="M10.4492 9.6273L8.45135 7.63636L10.4492 5.62795C11.5532 4.52769 13.3407 4.52769 14.4448 5.62795C15.5488 6.72821 15.5488 8.52704 14.4448 9.6273C13.3407 10.7276 11.5532 10.7276 10.4492 9.6273Z" fill="var(--fill-0, #1EAF37)"/>
<path id="Vector 1" d="M4.82364 5.62796L6.82144 7.63637L4.82364 9.62731C3.71959 10.7276 1.93209 10.7276 0.828037 9.62731C-0.276012 8.52705 -0.276012 6.72822 0.828037 5.62796C1.93209 4.5277 3.71959 4.5277 4.82364 5.62796Z" fill="var(--fill-0, #AAE641)"/>
</g>
</svg>
