<svg preserveAspectRatio="none" width="100%" height="100%" overflow="visible" style="display: block;" viewBox="0 0 12.4988 5.49353" fill="none" xmlns="http://www.w3.org/2000/svg">
<path id="vector" fill-rule="evenodd" clip-rule="evenodd" d="M0 0C0.0405913 0.0469802 0.0825959 0.0954112 0.125966 0.145206C0.683528 0.78537 1.46888 1.65345 2.37945 2.56403C3.42925 3.61382 4.42278 4.49739 5.07598 5.05753C5.75387 5.63886 6.74494 5.63886 7.42284 5.05753C8.07604 4.49739 9.06957 3.61382 10.1194 2.56403C11.0299 1.65345 11.8153 0.78537 12.3729 0.145206C12.4162 0.0954112 12.4582 0.0469802 12.4988 0H10.8306C10.3739 0.505193 9.83184 1.08379 9.23548 1.68014C8.21475 2.70087 7.24629 3.56226 6.60913 4.10865C6.39942 4.28849 6.0994 4.28849 5.88969 4.10865C5.25253 3.56226 4.28406 2.70087 3.26334 1.68014C2.66698 1.08379 2.12494 0.505193 1.66826 0H0Z" fill="var(--fill-0, white)"/>
</svg>
