<svg preserveAspectRatio="none" width="100%" height="100%" overflow="visible" style="display: block;" viewBox="0 0 13.4353 20" fill="none" xmlns="http://www.w3.org/2000/svg">
<g id="Vector">
<path d="M6.71282 9.90917C8.08356 9.90917 9.3222 9.34765 10.214 8.45582C11.1058 7.564 11.6673 6.32535 11.6673 4.95458C11.6673 3.58382 11.1058 2.34517 10.214 1.45334C9.3222 0.561519 8.08356 0 6.71282 0C5.34208 0 4.10347 0.561519 3.21166 1.45334C2.31985 2.34517 1.75834 3.58382 1.75834 4.95458C1.75834 6.32535 2.31985 7.564 3.21166 8.45582C4.10347 9.34765 5.35859 9.90917 6.71282 9.90917ZM5.12738 3.3526C5.54026 2.93972 6.10176 2.69199 6.71282 2.69199C7.34039 2.69199 7.90191 2.93972 8.29827 3.3526C8.71115 3.76548 8.95887 4.327 8.95887 4.93807C8.95887 5.56565 8.71115 6.12717 8.29827 6.52354C7.8854 6.93642 7.32387 7.18415 6.71282 7.18415C6.08525 7.18415 5.52374 6.93642 5.12738 6.52354C4.71451 6.11065 4.46678 5.54913 4.46678 4.93807C4.46678 4.327 4.73102 3.76548 5.12738 3.3526Z" fill="var(--fill-0, #FD3D0D)"/>
<path d="M13.3849 11.9075L11.9315 9.92568C11.849 9.81007 11.6838 9.79355 11.5847 9.89265C10.214 11.0652 8.52946 11.8249 6.71281 11.8249C4.89616 11.8249 3.21164 11.0652 1.84089 9.89265C1.7418 9.81007 1.57665 9.82659 1.49408 9.92568L0.0407619 11.9075C-0.025298 12.0066 -0.00878292 12.1387 0.0737919 12.2213C1.2959 13.2122 2.71619 13.8893 4.20253 14.2362L1.13075 19.6532C1.04818 19.8018 1.16378 20 1.32893 20H4.33465C4.43374 20 4.51632 19.9505 4.54935 19.8514L6.69629 15.0619L8.84324 19.8514C8.87627 19.9339 8.95885 20 9.05794 20H12.0637C12.2453 20 12.3444 19.8183 12.2618 19.6532L9.19005 14.2362C10.6764 13.8893 12.0967 13.2287 13.3188 12.2213C13.4509 12.1387 13.4674 12.0066 13.3849 11.9075Z" fill="var(--fill-0, #FD3D0D)"/>
</g>
</svg>
