<svg preserveAspectRatio="none" width="100%" height="100%" overflow="visible" style="display: block;" viewBox="0 0 15.2431 2.97495" fill="none" xmlns="http://www.w3.org/2000/svg">
<g id="Group">
<path id="Vector" d="M0 0.0756531H2.75919V2.90196H1.96782V0.814027H0.7949V2.90196H0.0035331V0.0756531H0Z" fill="var(--fill-0, black)"/>
<path id="Vector_2" d="M5.46472 0.0741906H6.25609V2.9005H5.46472V2.49422C5.35873 2.6426 5.22095 2.76625 5.05844 2.85104C4.89592 2.93583 4.71575 2.97822 4.53204 2.97469C3.75127 2.97469 3.17188 2.37057 3.17188 1.49441C3.17188 0.621788 3.74067 0 4.5497 0C4.91359 0 5.27748 0.15898 5.46472 0.448677V0.0741906ZM5.43999 1.49088C5.43999 1.39196 5.42232 1.29657 5.387 1.20471C5.35167 1.11286 5.29514 1.0316 5.22802 0.960945C5.16089 0.890287 5.07963 0.837294 4.98778 0.798432C4.89946 0.759571 4.80054 0.741906 4.70515 0.738373C4.51084 0.745439 4.32713 0.826696 4.19288 0.968011C4.05863 1.10933 3.98444 1.29657 3.98444 1.49088C3.98444 1.68519 4.06216 1.87243 4.19641 2.01021C4.33066 2.148 4.5179 2.22925 4.71221 2.23632C4.90652 2.23278 5.09377 2.15153 5.23155 2.01375C5.36227 1.87243 5.43999 1.68519 5.43999 1.49088Z" fill="var(--fill-0, black)"/>
<path id="Vector_3" d="M8.63375 2.90196L8.00489 1.87389H7.57035V2.90196H6.80371V0.0756531H7.57035V1.19911H7.98016L8.62668 0.0791859H9.4993L8.65848 1.47468L9.60176 2.90196H8.63375Z" fill="var(--fill-0, black)"/>
<path id="Vector_4" d="M12.5049 1.74547H10.3816C10.4664 2.07757 10.7349 2.27187 11.1059 2.27187C11.2472 2.27187 11.385 2.24008 11.5121 2.18355C11.6393 2.12703 11.7559 2.04224 11.8478 1.93978L12.307 2.40612C12.0421 2.76295 11.551 2.97492 11.0564 2.97492C10.1838 2.97492 9.54785 2.36373 9.54785 1.49464C9.54785 0.579622 10.2438 0.0072937 11.0493 0.0072937C11.8548 0.0072937 12.519 0.583155 12.519 1.44871C12.5225 1.51937 12.5155 1.61829 12.5049 1.74547ZM11.7241 1.22967C11.6994 0.897581 11.4273 0.685608 11.0705 0.685608C10.742 0.685608 10.4664 0.848121 10.3816 1.22967H11.7241Z" fill="var(--fill-0, black)"/>
<path id="Vector_5" d="M15.2431 0.0756531V0.814027H14.367V2.90196H13.5685V0.814027H12.6924V0.0756531H15.2431Z" fill="var(--fill-0, black)"/>
</g>
</svg>
