<svg preserveAspectRatio="none" width="100%" height="100%" overflow="visible" style="display: block;" viewBox="0 0 21.8779 25.449" fill="none" xmlns="http://www.w3.org/2000/svg">
<g id="Group 2">
<path id="Vector" d="M16.8175 2.3258C22.5218 7.72601 18.762 17.0714 11.0596 17.2704L2.6389 17.2568L2.61107 17.1711C2.6494 15.6485 2.56508 14.119 2.61107 12.5973C2.66473 10.8178 3.04574 9.38119 4.13367 7.9591C5.12224 6.66703 6.47591 5.51522 8.06324 5.06097C7.95393 5.19583 7.82561 5.33267 7.72737 5.47718C5.60857 8.59221 8.22308 12.7049 11.9298 12.0644C15.304 11.4813 16.6486 7.14173 14.0826 4.81908C10.8611 1.90335 5.1969 3.97304 3.02615 7.27715L2.30048 8.46758C2.33994 6.77804 2.87965 5.05501 3.85516 3.6772C6.86884 -0.579707 13.0012 -1.28721 16.8175 2.3258Z" fill="var(--fill-0, #AE2483)"/>
<path id="Vector_2" d="M5.59298 25.3891L5.57907 25.219C5.51065 25.2531 5.42178 25.3096 5.35251 25.3331C4.02155 25.7834 2.71643 24.6373 3.13661 23.2592C3.44891 22.2351 4.66034 21.7556 5.59269 22.2945V22.1241H6.4447V25.3891H5.59298ZM4.56353 22.9256C4.09679 23.004 3.80408 23.5536 3.93098 23.9988C4.20637 24.9649 5.76815 24.7296 5.58616 23.5644C5.5149 23.1082 4.99053 22.8538 4.56353 22.9256Z" fill="var(--fill-0, #AE2483)"/>
<path id="Vector_3" d="M0.851723 21.1872V23.2881L2.08672 22.1241H3.23655L1.53367 23.7563L3.29333 25.389H2.08672L0.851723 24.2534V25.389H0V21.1872H0.851723Z" fill="var(--fill-0, #AE2483)"/>
<path id="Vector_4" d="M18.6242 21.1872V25.389H18.0848V24.9632C17.4077 25.6218 16.3933 25.6224 15.79 24.859C15.0683 23.9454 15.51 22.3717 16.711 22.184C17.2453 22.1005 17.6975 22.2743 18.0848 22.6351V21.1872H18.6242ZM17.7921 22.9843C17.329 22.4753 16.4861 22.6053 16.1599 23.1944C15.6642 24.0896 16.427 25.2655 17.4466 24.8502C18.1526 24.5626 18.2821 23.5229 17.7921 22.9843Z" fill="var(--fill-0, #AE2483)"/>
<path id="Vector_5" d="M21.7755 22.862L21.2492 22.9988C21.2106 22.9915 21.1819 22.8123 21.156 22.7578C20.9008 22.2206 19.7127 22.3541 19.8804 23.0113C19.9154 23.1482 20.1485 23.2316 20.2705 23.2739C20.6714 23.4131 21.2455 23.4043 21.5629 23.685C22.1551 24.2088 21.8499 25.0688 21.1654 25.3323C20.3344 25.6522 19.2805 25.3093 19.1079 24.3678L19.6434 24.227C19.7652 24.8337 20.4108 25.043 20.9488 24.832C21.2747 24.704 21.4215 24.2852 21.0805 24.0822C20.5496 23.766 19.404 23.9207 19.2842 23.0962C19.1346 22.0648 20.2052 21.7215 21.0303 21.9748C21.4712 22.1099 21.6733 22.4268 21.7752 22.862H21.7755Z" fill="var(--fill-0, #AE2483)"/>
<path id="Vector_6" d="M11.555 21.1872V23.5436L11.6404 23.5013L12.9603 22.3228H13.7127L12.0456 23.8131L13.7695 25.389H13.0171C12.7156 25.0728 12.3638 24.809 12.0359 24.524C11.9127 24.4169 11.7764 24.2582 11.6404 24.1538C11.6118 24.1316 11.6047 24.099 11.555 24.1115V25.389H11.0156V21.1872H11.555Z" fill="var(--fill-0, #AE2483)"/>
<path id="Vector_7" d="M8.00599 22.1241L8.02019 22.3512C8.25271 21.805 8.70412 21.261 9.33411 21.1954C9.7878 21.148 10.2557 21.5037 10.0232 21.9693C9.7719 22.473 8.96077 22.243 9.06355 21.6341C9.08058 21.5333 9.14758 21.4771 9.17001 21.3859C8.68538 21.5503 8.3623 21.9316 8.18372 22.4009C8.15022 22.4886 8.00628 22.9312 8.00628 22.99V25.389H7.15455V22.1241H8.00628H8.00599Z" fill="var(--fill-0, #AE2483)"/>
<path id="Vector_8" d="M9.99315 22.55H9.14143V25.3891H9.99315V22.55Z" fill="var(--fill-0, #AE2483)"/>
<path id="Vector_9" d="M14.8769 22.3228H14.3375V25.389H14.8769V22.3228Z" fill="var(--fill-0, #AE2483)"/>
<path id="Vector_10" d="M14.374 21.2522C14.6744 21.0106 15.1638 21.4047 14.9182 21.7817C14.6746 22.1556 14.1287 21.8981 14.23 21.4626C14.2377 21.4297 14.3507 21.271 14.374 21.2522Z" fill="var(--fill-0, #AE2483)"/>
</g>
</svg>
