<svg preserveAspectRatio="none" width="100%" height="100%" overflow="visible" style="display: block;" viewBox="0 0 34.57 10.5008" fill="none" xmlns="http://www.w3.org/2000/svg">
<g id="Group 2">
<path id="Vector" d="M0.203439 10.486C0.298215 9.11216 -0.000817045 7.52795 0.397483 6.206C0.807222 4.84647 2.11283 3.51104 3.47195 3.09191C2.09894 4.6896 3.11369 7.26691 5.24735 7.38252C8.31487 7.54837 9.12536 3.09272 5.89975 2.23689C3.78896 1.67682 1.59647 2.76673 0.399117 4.49188L0 5.13406C0.0396258 3.28227 1.05927 1.57796 2.66841 0.674735C5.58764 -0.964219 9.30511 0.512146 10.2741 3.70427C11.2529 6.92948 9.01507 10.1747 5.69998 10.4876L0.203439 10.486Z" fill="var(--fill-0, white)"/>
<path id="Vector 4" d="M25.2049 10.4041V10.0364C24.9434 10.1296 24.7065 10.2729 24.4377 10.3518C21.7509 11.1369 19.2385 8.69322 20.0282 5.98315C20.6647 3.79965 23.2407 2.79634 25.2045 3.94957V3.54106H27.0023V10.4041H25.2049ZM23.1942 5.2274C20.8248 5.50927 21.3604 9.19488 23.7853 8.71896C25.9798 8.28839 25.4818 4.95533 23.1942 5.2274Z" fill="var(--fill-0, white)"/>
<path id="Vector 3" d="M15.2371 1.62101V6.03295L17.8721 3.54102H20.3027L16.7111 6.98724L20.4661 10.404H17.8721L15.2371 7.91211V10.404H13.4805V1.62101H15.2371Z" fill="var(--fill-0, white)"/>
<path id="Vector 2" d="M30.2296 4.15379L30.6875 3.24322C31.2161 2.29302 32.3926 1.49356 33.5136 1.62551C34.5357 1.74602 34.974 3.03774 34.1076 3.6407C33.0761 4.35887 31.8432 2.95971 32.7211 2.04995C32.5205 2.03688 32.2247 2.19906 32.0405 2.30895C30.9187 2.97523 30.3787 4.40544 30.23 5.64568V10.4045H28.473V3.54102H30.2296V4.15379Z" fill="var(--fill-0, white)"/>
<path id="Vector 1" d="M34.3964 4.43968H32.5989V10.404H34.3964V4.43968Z" fill="var(--fill-0, white)"/>
</g>
</svg>
