<svg preserveAspectRatio="none" width="100%" height="100%" overflow="visible" style="display: block;" viewBox="0 0 28.286 28.2855" fill="none" xmlns="http://www.w3.org/2000/svg">
<g id="Group 184143">
<path id="Vector" d="M17.8253 8.93519L14.1253 12.6225L10.4252 8.93519C8.3805 6.89748 8.3805 3.56599 10.4252 1.52828C12.47 -0.509427 15.7806 -0.509427 17.8253 1.52828C19.8701 3.56599 19.8701 6.86513 17.8253 8.93519Z" fill="var(--fill-0, #5FAF2D)"/>
<path id="Vector_2" d="M10.4252 19.3503L14.1253 15.6307L17.8253 19.3503C19.8701 21.388 19.8701 24.7195 17.8253 26.7572C15.7806 28.7949 12.47 28.7949 10.4252 26.7572C8.3805 24.6871 8.3805 21.388 10.4252 19.3503Z" fill="var(--fill-0, #005A28)"/>
<path id="Vector_3" d="M19.3523 17.83L15.6522 14.1427L19.3523 10.4231C21.397 8.38541 24.7076 8.38541 26.7523 10.4231C28.7971 12.4608 28.7971 15.7923 26.7523 17.83C24.7076 19.8677 21.397 19.8677 19.3523 17.83Z" fill="var(--fill-0, #1EAF37)"/>
<path id="Vector_4" d="M8.93362 10.4231L12.6336 14.1427L8.93362 17.83C6.88887 19.8677 3.57832 19.8677 1.53356 17.83C-0.511188 15.7923 -0.511188 12.4608 1.53356 10.4231C3.57832 8.38541 6.88887 8.38541 8.93362 10.4231Z" fill="var(--fill-0, #AAE641)"/>
</g>
</svg>
