<svg preserveAspectRatio="none" width="100%" height="100%" overflow="visible" style="display: block;" viewBox="0 0 13.4339 13.4337" fill="none" xmlns="http://www.w3.org/2000/svg">
<g id="Container">
<path id="Rectangle 2131327795" d="M0.000179369 5.58891C0.000179369 3.63261 0.000179369 2.65446 0.380901 1.90725C0.715793 1.24999 1.25016 0.715616 1.90743 0.380724C2.65463 2.49123e-06 3.63278 2.49123e-06 5.58909 2.49123e-06H7.84499C9.80129 2.49123e-06 10.7794 2.49123e-06 11.5266 0.380724C12.1839 0.715616 12.7183 1.24999 13.0532 1.90725C13.4339 2.65446 13.4339 3.63261 13.4339 5.58891V7.8448C13.4339 9.8011 13.4339 10.7793 13.0532 11.5265C12.7183 12.1837 12.1839 12.7181 11.5266 13.053C10.7794 13.4337 9.80129 13.4337 7.84499 13.4337H5.58908C3.63278 13.4337 2.65463 13.4337 1.90743 13.053C1.25016 12.7181 0.715793 12.1837 0.380901 11.5265C0.000179369 10.7793 0.000179369 9.80111 0.000179369 7.8448V5.58891Z" fill="var(--fill-0, #F76100)"/>
<path id="Ellipse 7583" d="M10.3334 6.39285C10.674 6.40427 10.7321 6.60621 10.7052 6.86736C10.6637 7.27128 10.5693 7.66768 10.4243 8.0446C10.2228 8.56826 9.92742 9.04408 9.55508 9.44488C9.18273 9.84568 8.74069 10.1636 8.2542 10.3805C7.76771 10.5974 7.24628 10.7091 6.71971 10.7091C6.19313 10.7091 5.67171 10.5974 5.18522 10.3805C4.69873 10.1636 4.25669 9.84568 3.88434 9.44488C3.512 9.04408 3.21664 8.56826 3.01513 8.0446C2.87009 7.66768 2.77571 7.27128 2.7342 6.86736C2.70737 6.60621 2.76612 6.4044 3.10601 6.39285C3.4459 6.3813 5.07078 6.37339 6.71971 6.37339C8.36863 6.37339 9.99277 6.38144 10.3334 6.39285Z" fill="var(--fill-0, white)"/>
</g>
</svg>
