<svg preserveAspectRatio="none" width="100%" height="100%" overflow="visible" style="display: block;" viewBox="0 0 30.4857 5.94984" fill="none" xmlns="http://www.w3.org/2000/svg">
<g id="Group">
<path id="Vector" d="M0 0.151302H5.51837V5.80392H3.93564V1.62805H1.5898V5.80392H0.00706621V0.151302H0Z" fill="var(--fill-0, black)"/>
<path id="Vector_2" d="M10.9276 0.148381H12.5104V5.801H10.9276V4.98844C10.7156 5.2852 10.4401 5.5325 10.1151 5.70208C9.79003 5.87166 9.42967 5.95645 9.06225 5.94938C7.50072 5.94938 6.34193 4.74113 6.34193 2.98882C6.34193 1.24358 7.47952 1.30967e-08 9.09758 1.30967e-08C9.82536 1.30967e-08 10.5531 0.31796 10.9276 0.897353V0.148381ZM10.8782 2.98176C10.8782 2.78391 10.8428 2.59314 10.7722 2.40943C10.7015 2.22572 10.5885 2.06321 10.4542 1.92189C10.32 1.78057 10.1574 1.67459 9.97374 1.59686C9.79709 1.51914 9.59925 1.48381 9.40848 1.47675C9.01986 1.49088 8.65244 1.65339 8.38394 1.93602C8.11544 2.21865 7.96706 2.59314 7.96706 2.98176C7.96706 3.37037 8.12251 3.74486 8.39101 4.02043C8.6595 4.29599 9.03399 4.4585 9.42261 4.47263C9.81123 4.46557 10.1857 4.30306 10.4613 4.02749C10.7227 3.74486 10.8782 3.37037 10.8782 2.98176Z" fill="var(--fill-0, black)"/>
<path id="Vector_3" d="M17.2663 5.80392L16.0086 3.74778H15.1395V5.80392H13.6063V0.151302H15.1395V2.39822H15.9592L17.2522 0.158368H18.9974L17.3158 2.94935L19.2024 5.80392H17.2663Z" fill="var(--fill-0, black)"/>
<path id="Vector_4" d="M25.0091 3.49095H20.7626C20.9322 4.15513 21.4692 4.54375 22.2111 4.54375C22.4937 4.54375 22.7693 4.48015 23.0236 4.3671C23.278 4.25405 23.5112 4.08447 23.6949 3.87956L24.6134 4.81225C24.0835 5.52589 23.1014 5.94984 22.1121 5.94984C20.3669 5.94984 19.0951 4.72746 19.0951 2.98927C19.0951 1.15924 20.487 0.0145834 22.098 0.0145834C23.709 0.0145834 25.0374 1.16631 25.0374 2.89742C25.0444 3.03874 25.0303 3.23658 25.0091 3.49095ZM23.4476 2.45934C23.3981 1.79516 22.8541 1.37121 22.1404 1.37121C21.4833 1.37121 20.9322 1.69624 20.7626 2.45934H23.4476Z" fill="var(--fill-0, black)"/>
<path id="Vector_5" d="M30.4856 0.151302V1.62805H28.7333V5.80392H27.1364V1.62805H25.3841V0.151302H30.4856Z" fill="var(--fill-0, black)"/>
</g>
</svg>
