<svg preserveAspectRatio="none" width="100%" height="100%" overflow="visible" style="display: block;" viewBox="0 0 36.4139 11.2143" fill="none" xmlns="http://www.w3.org/2000/svg">
<g id="Container">
<path id="Vector" d="M32.3626 4.43838H33.5096V2.68122H35.2668V4.43838H36.4138V0.119523H35.2668V1.72802H33.5096V0.119523H32.3626V4.43838ZM27.5668 4.43838H28.5795L30.59 1.77262V4.43838H31.737V0.119523H30.6798L28.7139 2.71095V0.119523H27.5668V4.43838ZM25.0051 4.55731C26.2116 4.55731 27.1197 3.79795 27.2392 2.72523L26.0327 2.62116C26.0327 2.91908 25.8537 3.54464 24.9903 3.54464C24.4836 3.54464 23.8884 3.15753 23.8884 2.29352C23.8884 1.35518 24.4842 1.01267 24.9903 1.01267C25.7645 1.01267 26.0178 1.62336 26.0178 2.0402L27.1797 1.90641C27.1797 1.13219 26.5988 0 25.02 0C23.933 0 22.7265 0.670157 22.7265 2.29352C22.7265 3.79795 23.6945 4.55731 25.0051 4.55731ZM18.5717 4.43838H20.7017C21.5057 4.43838 22.4737 4.081 22.4737 2.93394C22.4737 1.63823 21.4611 1.45924 20.7463 1.45924H19.7188V0.118928H18.5717V4.43778V4.43838ZM19.7182 3.48517V2.39818H20.4776C21.1328 2.39818 21.3118 2.63662 21.3118 2.93454C21.3118 3.32165 21.0882 3.48577 20.4776 3.48577H19.7182V3.48517ZM10.336 1.86181C10.4549 1.32545 10.8123 0.953203 11.423 0.953203C12.0337 0.953203 12.3762 1.35518 12.4654 1.86181H10.3354H10.336ZM11.4379 4.55731C12.2418 4.55731 13.091 4.27426 13.4781 3.23186L12.4654 2.88934C12.3911 3.18726 12.1378 3.61897 11.4527 3.61897C10.7082 3.61897 10.4103 3.17239 10.3211 2.59143H13.6571C13.8057 1.13219 12.9572 0 11.4527 0C9.87397 0 9.11461 1.087 9.11461 2.35298C9.11461 3.61897 9.93402 4.55731 11.4379 4.55731ZM4.6911 4.43838H5.83816V1.10246H7.61018V4.43838H8.75723V0.119523H4.69169V4.43838H4.6911ZM1.6531 4.55731C2.38272 4.55731 2.84475 4.28912 3.14266 3.97634V4.43778H4.21479V2.0402C4.21479 1.26598 4.03581 0 2.15973 0C1.02813 0 0.357378 0.610692 0.164121 1.37004L1.23625 1.72742C1.32545 1.26598 1.57876 0.982935 2.14486 0.982935C2.75555 0.982935 3.0386 1.29572 3.0832 1.93614H1.81722C0.759951 1.93614 0 2.33811 0 3.26159C0 4.081 0.655294 4.55731 1.6531 4.55731ZM1.96588 3.6487C1.41465 3.6487 1.22139 3.42511 1.22139 3.17239C1.22139 2.91967 1.41524 2.66576 1.92128 2.66576H3.0832V2.74009C3.0832 3.32105 2.54683 3.6487 1.96647 3.6487H1.96588ZM13.4335 4.36345C13.5821 4.40805 13.7314 4.43778 13.88 4.43778C15.6521 4.43778 15.4588 2.62057 15.5034 1.62277L15.5183 1.07154H16.7991V4.45205H17.9462V0.118332H14.4461L14.4015 1.93555C14.3718 3.03741 14.2529 3.32046 13.9252 3.32046C13.8212 3.32046 13.7165 3.30559 13.6125 3.27586L13.4335 4.36286V4.36345Z" fill="var(--fill-0, black)"/>
<g id="Vector_2">
<path d="M21.7714 11.0954H20.7588V6.77652H21.9058V9.36795L23.8717 6.77652H24.929V11.0954H23.7819V8.42961L21.7714 11.0954Z" fill="var(--fill-0, black)"/>
<path d="M24.4818 5.12343C24.4669 5.67406 24.1244 6.5232 22.8436 6.5232C21.5478 6.5232 21.2202 5.67465 21.2202 5.12343H22.2923C22.3221 5.37674 22.4713 5.63005 22.8436 5.63005C23.2158 5.63005 23.3502 5.37674 23.3799 5.12343H24.4818Z" fill="var(--fill-0, black)"/>
<path d="M20.3122 8.93565C20.3122 10.0078 19.7312 11.2143 18.093 11.2143V11.2137C17.1844 11.2137 16.1271 10.782 15.9184 9.54575L17.0952 9.36676C17.1398 9.90312 17.6018 10.201 18.0781 10.201C18.674 10.201 19.0165 9.90312 19.1057 9.32216H17.5715V8.54794H19.1205C19.0611 7.86292 18.5247 7.66907 18.1079 7.66907C17.4674 7.66907 17.1249 8.05618 17.1101 8.56281L15.9481 8.41415C16.0379 7.44608 16.827 6.657 18.1227 6.657C19.3293 6.657 20.3122 7.40148 20.3122 8.93565Z" fill="var(--fill-0, black)"/>
<path d="M12.6568 11.0954H11.4955V6.77652H15.5759V11.0954H14.414V7.75945H12.6568V11.0954Z" fill="var(--fill-0, black)"/>
</g>
</g>
</svg>
