<svg preserveAspectRatio="none" width="100%" height="100%" overflow="visible" style="display: block;" viewBox="0 0 34.5714 34.5714" fill="none" xmlns="http://www.w3.org/2000/svg">
<g id="&#208;&#161;&#208;&#187;&#208;&#190;&#208;&#185; 1">
<path id="Vector" d="M17.2851 0C7.7538 0 0 7.75493 0 17.2851C0 26.8154 7.7538 34.5714 17.2851 34.5714C26.8165 34.5714 34.5714 26.8165 34.5714 17.2851C34.5714 7.7538 26.8165 0 17.2851 0Z" fill="var(--fill-0, white)"/>
<path id="Vector_2" d="M26.7649 5.44854C24.6525 10.9367 19.0463 10.2261 15.0882 10.3635L14.1268 14.1093C19.0077 10.1365 25.4596 14.0752 24.7694 20.0776C24.3052 24.1208 21.4232 26.7644 18.3743 27.5249C15.0519 28.3535 11.372 27.114 9.72153 23.728C9.49333 23.2547 9.29395 22.768 9.12448 22.2706L12.6285 21.3716C12.6962 21.574 12.7893 21.7669 12.9055 21.9459C15.2506 25.7281 20.0032 23.837 20.5401 19.9141C21.0849 15.922 15.4844 13.7949 12.935 18.4601L9.82596 17.1298L9.77148 17.107L10.9281 12.4645C11.1132 11.6382 11.6637 9.48265 11.7227 9.27379C11.8214 8.95143 11.843 8.84473 11.9497 8.55188C13.9407 3.32025 17.8772 2.79243 21.371 2.79243C21.5106 2.79243 21.6491 2.79243 21.7864 2.79243C18.1709 1.66003 14.2629 1.91775 10.8274 3.51513C7.39187 5.11252 4.67619 7.93457 3.21193 11.4289C1.74766 14.9232 1.64022 18.8382 2.91064 22.4076C4.18107 25.977 6.73788 28.9437 10.0806 30.7271C13.4233 32.5105 17.3113 32.9822 20.9835 32.0497C24.6557 31.1173 27.8477 28.848 29.9347 25.6859C32.0218 22.5239 32.8535 18.6967 32.2672 14.9536C31.681 11.2106 29.7188 7.82104 26.7649 5.44854" fill="var(--fill-0, #E52322)"/>
<path id="Vector_3" d="M25.3848 4.41684C24.7967 6.2433 23.7706 7.39322 22.1848 8.01188C20.5342 8.65437 18.5262 8.6714 16.5828 8.69297C15.5384 8.70092 14.5395 8.70886 13.6223 8.81897C15.2705 4.83685 18.2299 4.44408 21.3856 4.44408C21.8249 4.44408 22.2654 4.45316 22.691 4.46225C23.1167 4.47133 23.5186 4.47814 23.9193 4.47814C24.4937 4.47814 24.9659 4.46111 25.3848 4.42252" fill="var(--fill-0, #00923A)"/>
</g>
</svg>
