<svg preserveAspectRatio="none" width="100%" height="100%" overflow="visible" style="display: block;" viewBox="0 0 56.0003 39.6921" fill="none" xmlns="http://www.w3.org/2000/svg">
<g id="Group 73387336">
<path id="Vector" d="M35.257 39.329L31.1005 32.0429L27.0301 39.329H22.1588L28.42 28.3476L22.033 18.1486H27.1294L31.2131 24.9595L35.1114 18.1486H39.9894L33.7083 28.6829L40.1614 39.329H35.257Z" fill="var(--fill-0, black)"/>
<path id="Vector_2" d="M56.0003 32.1337C56.0003 36.7931 52.6909 39.6921 48.316 39.6921C44.4773 39.6921 41.2407 37.4567 40.9297 32.5878H45.0862C45.3708 34.6835 46.9791 35.6126 48.7264 35.6126C50.904 35.6126 51.8438 34.0687 51.8438 32.0709C51.8438 30.073 50.381 28.6829 48.3491 28.6829C47.7009 28.6474 47.055 28.7904 46.4749 29.0978C45.8947 29.4052 45.4002 29.8664 45.0398 30.4362H41.0687L42.4453 18.1486H55.4907L55.0538 22.2631H45.7084L45.3377 26.3287C45.3377 26.3287 46.3173 25.1132 49.3089 25.1132C52.8763 25.1132 56.0003 27.649 56.0003 32.1337Z" fill="var(--fill-0, black)"/>
<path id="Vector_3" d="M41.4193 15.515C39.2087 6.43373 32.1533 0 17.5923 0H0L2.38932 17.0518C4.18297 32.4201 9.76247 37.3939 19.6308 39.2171C19.6767 39.2306 19.7249 39.2317 19.7713 39.2204C19.8176 39.209 19.8605 39.1856 19.8961 39.1523C19.9316 39.1189 19.9587 39.0767 19.9748 39.0294C19.9909 38.9822 19.9955 38.9314 19.9883 38.8818C19.99 38.8161 19.9725 38.7513 19.9381 38.6963C19.9038 38.6413 19.8543 38.5988 19.7963 38.5745C13.1248 35.6126 12.3636 25.8886 10.9406 16.1368L9.83527 8.36177H19.8824C29.1484 8.36177 36.3032 8.20808 40.8303 15.7595C40.8619 15.8134 40.9057 15.8581 40.9576 15.8898C41.0096 15.9215 41.0681 15.9391 41.1281 15.9411C41.1693 15.9412 41.2099 15.9324 41.2478 15.9154C41.2856 15.8984 41.3198 15.8734 41.3482 15.8421C41.3767 15.8107 41.3988 15.7737 41.4134 15.7331C41.4278 15.6925 41.4344 15.6492 41.4326 15.6058C41.432 15.5751 41.4274 15.5445 41.4193 15.515Z" fill="var(--fill-0, #5FAF2D)"/>
</g>
</svg>
