<svg preserveAspectRatio="none" width="100%" height="100%" overflow="visible" style="display: block;" viewBox="0 0 27.4175 30.8553" fill="none" xmlns="http://www.w3.org/2000/svg">
<g id="Group">
<path id="Vector" d="M17.183 6.09595C16.2645 2.51559 13.3505 0 7.30322 0H0.00195312L0.993166 6.70191C1.73878 12.7492 4.05161 14.6947 8.14461 15.4111C8.1636 15.414 8.29336 15.4325 8.29496 15.2808C8.2955 15.2262 8.26099 15.1792 8.21363 15.1588C5.44707 13.994 5.13138 10.1742 4.5404 6.34101L4.08318 3.28608H8.25109C12.0937 3.28608 15.0606 3.22535 16.939 6.19173C16.9668 6.23346 17.0104 6.26423 17.062 6.26423C17.1345 6.26423 17.1886 6.20537 17.1886 6.13287C17.1886 6.11976 17.1867 6.10719 17.1832 6.09595H17.183Z" fill="var(--fill-0, #5FAF2D)"/>
<path id="Vector_2" d="M14.629 15.4568L12.9047 12.591L11.216 15.4568H9.19456L11.7915 11.1402L9.14453 7.13281H11.2564L12.9521 9.80839L14.5693 7.13281H16.5908L13.9866 11.271L16.6622 15.4568H14.6287H14.629Z" fill="var(--fill-0, black)"/>
<path id="Vector_3" d="M23.235 12.6263C23.235 14.4575 21.8555 15.5991 20.0481 15.5991C18.4547 15.5991 17.1132 14.7192 16.9824 12.8047H18.7067C18.8255 13.637 19.4916 13.9939 20.2169 13.9939C21.1206 13.9939 21.5107 13.3874 21.5107 12.6027C21.5107 11.8181 20.9042 11.271 20.0599 11.271C19.3584 11.271 18.8945 11.6041 18.6805 11.9607H17.0325L17.602 7.13281H23.0228L22.8419 8.75003H18.9643L18.8102 10.3477C18.8102 10.3477 19.2174 9.86804 20.4518 9.86804C21.9388 9.86804 23.235 10.8662 23.235 12.6268V12.6263Z" fill="var(--fill-0, black)"/>
<path id="Vector_4" d="M0 20.1582H1.08137V24.1749L5.28834 20.1582H6.70252L2.78074 23.9256L6.98771 28.4771H5.56149L1.97253 24.6385L1.08137 25.4941V28.4771H0V20.1582Z" fill="var(--fill-0, black)"/>
<path id="Vector_5" d="M12.338 23.2379H9.67602V23.6062C9.67602 25.3019 9.50561 26.5555 9.16504 27.3675C8.82447 28.1797 8.29341 28.5855 7.57267 28.5855C7.50927 28.5855 7.45175 28.5837 7.40038 28.5796C7.34875 28.5756 7.30327 28.5695 7.26367 28.5617V27.5991C7.29524 27.6072 7.33297 27.6109 7.37657 27.6109H7.50151C7.70724 27.6109 7.88783 27.5357 8.0422 27.3851C8.19683 27.2348 8.32337 26.9969 8.42236 26.6721C8.52135 26.3474 8.59652 25.9335 8.64816 25.4303C8.69953 24.9273 8.72548 24.319 8.72548 23.606V22.2988H13.3367V28.4785H12.3383V23.2376L12.338 23.2379Z" fill="var(--fill-0, black)"/>
<path id="Vector_6" d="M16.9838 28.2527L14.2266 22.2988H15.4032L17.4948 26.9335L19.23 22.2988H20.3234L17.0314 30.8553H15.938L16.9838 28.2527Z" fill="var(--fill-0, black)"/>
<path id="Vector_7" d="M24.2796 28.5877C23.7881 28.5877 23.3427 28.5064 22.9427 28.344C22.5425 28.1816 22.2001 27.944 21.9146 27.631C21.6294 27.318 21.4095 26.9319 21.2551 26.4723C21.1008 26.013 21.0234 25.4859 21.0234 24.8918C21.0234 24.1392 21.0451 23.5014 21.0887 22.9784C21.1323 22.4554 21.2056 22.0158 21.3086 21.6592C21.4116 21.3026 21.5443 21.0136 21.7067 20.7916C21.8691 20.5698 22.0692 20.3876 22.3068 20.245C22.5286 20.1104 22.7544 20.0152 22.9842 19.9598C23.214 19.9045 23.4457 19.8707 23.6795 19.8587C23.9131 19.8469 24.1469 19.8469 24.3807 19.8587C24.6143 19.8705 24.8502 19.8766 25.0878 19.8766C25.468 19.8766 25.7275 19.8491 25.8663 19.7934C26.0049 19.738 26.0742 19.631 26.0742 19.4727H26.9656C26.9656 19.7263 26.9359 19.9382 26.8765 20.1083C26.8171 20.2787 26.716 20.4173 26.5734 20.5243C26.4308 20.6313 26.2446 20.7068 26.0148 20.7501C25.785 20.7937 25.5038 20.8154 25.171 20.8154C24.9966 20.8154 24.8085 20.8076 24.6065 20.7916C24.4045 20.7758 24.2004 20.7699 23.9947 20.7737C23.7884 20.7777 23.5848 20.7993 23.3826 20.8389C23.1806 20.8788 22.9922 20.95 22.8181 21.053C22.6674 21.1402 22.5428 21.2472 22.4438 21.3737C22.3445 21.5005 22.2635 21.6648 22.2001 21.8671C22.1364 22.069 22.089 22.3186 22.0575 22.6159C22.0256 22.9131 22.0018 23.2753 21.9863 23.7034C22.2635 23.2756 22.6238 22.9546 23.0677 22.7408C23.5112 22.5268 23.9947 22.42 24.5177 22.42C24.9455 22.42 25.3377 22.4896 25.6943 22.6279C26.0509 22.7665 26.3557 22.9666 26.6095 23.228C26.8629 23.4894 27.0611 23.8064 27.2037 24.1788C27.3463 24.5512 27.4175 24.9712 27.4175 25.4386C27.4175 25.906 27.342 26.2942 27.1917 26.6746C27.0411 27.055 26.8273 27.3875 26.5502 27.673C26.2727 27.9582 25.942 28.1821 25.5579 28.3445C25.1734 28.5069 24.7475 28.5882 24.2804 28.5882L24.2796 28.5877ZM24.2676 27.6489C24.6161 27.6489 24.923 27.5935 25.1884 27.4825C25.4538 27.3715 25.6737 27.2193 25.8479 27.025C26.022 26.8311 26.1529 26.6031 26.2401 26.3418C26.3273 26.0804 26.3709 25.7992 26.3709 25.498C26.3709 25.1967 26.3252 24.9038 26.2342 24.6424C26.143 24.381 26.0103 24.1552 25.8361 23.965C25.6617 23.7748 25.4458 23.6263 25.1884 23.5193C24.931 23.4123 24.6357 23.3588 24.3031 23.3588C23.9307 23.3588 23.6059 23.4142 23.3288 23.5252C23.0513 23.6362 22.8197 23.7807 22.6335 23.9589C22.4473 24.1371 22.3065 24.3433 22.2116 24.5769C22.1166 24.8107 22.069 25.0504 22.069 25.296C22.069 25.6446 22.1225 25.9635 22.2295 26.2527C22.3365 26.5419 22.4868 26.7896 22.6811 26.9953C22.875 27.2016 23.107 27.3619 23.3764 27.4766C23.6458 27.5917 23.9428 27.6489 24.2678 27.6489H24.2676Z" fill="var(--fill-0, black)"/>
</g>
</svg>
