<svg preserveAspectRatio="none" width="100%" height="100%" overflow="visible" style="display: block;" viewBox="0 0 21 18.018" fill="none" xmlns="http://www.w3.org/2000/svg">
<path id="vector" fill-rule="evenodd" clip-rule="evenodd" d="M12.3749 5.6979C13.0224 6.34539 14.4861 6.46562 15.6705 5.28121C16.8549 4.0968 16.7347 2.63308 16.0872 1.98559C15.4397 1.33809 13.976 1.21786 12.7915 2.40228C11.6071 3.58669 11.7274 5.0504 12.3749 5.6979ZM11.3142 6.75856C12.695 8.13934 15.1202 7.95278 16.7311 6.34187C17.2724 5.80058 17.6529 5.16735 17.8671 4.51269H21V3.01269H18.0651C18.0142 2.22697 17.7118 1.48884 17.1478 0.924927C15.7671 -0.455855 13.3418 -0.269298 11.7309 1.34161C11.2333 1.8392 10.8716 2.41449 10.65 3.01269H0V4.51269H10.3902C10.4085 5.35709 10.7126 6.15696 11.3142 6.75856ZM10.3836 15.0127H21V13.5127H10.6464C10.6296 12.6656 10.3255 11.8628 9.72217 11.2594C8.34139 9.87862 5.91614 10.0652 4.30523 11.6761C3.7619 12.2194 3.3806 12.8554 3.16682 13.5127H0V15.0127H2.97181C3.02404 15.7956 3.3264 16.5309 3.88854 17.093C5.26932 18.4738 7.69457 18.2873 9.30549 16.6763C9.80102 16.1808 10.1618 15.6082 10.3836 15.0127ZM8.24483 15.6157C7.06042 16.8001 5.5967 16.6799 4.9492 16.0324C4.30171 15.3849 4.18148 13.9212 5.36589 12.7367C6.5503 11.5523 8.01402 11.6726 8.66151 12.3201C9.30901 12.9676 9.42924 14.4313 8.24483 15.6157Z" fill="var(--fill-0, #778592)"/>
</svg>
