<svg preserveAspectRatio="none" width="100%" height="100%" overflow="visible" style="display: block;" viewBox="0 0 24.664 6.52652" fill="none" xmlns="http://www.w3.org/2000/svg">
<g id="Group">
<path id="Vector" d="M23.2376 5.16837C23.7915 5.16837 24.2334 5.05085 24.664 4.79392V3.73082C24.664 3.70991 24.6469 3.69696 24.6329 3.70667C24.1864 4.0144 23.7788 4.1476 23.2375 4.1476C22.5829 4.1476 22.2473 3.7363 22.2473 2.94333C22.2473 2.15037 22.5831 1.73907 23.2375 1.73907C23.7788 1.73907 24.1864 1.87227 24.6329 2.17999C24.6469 2.1897 24.664 2.17676 24.664 2.15584V1.09275C24.2332 0.835809 23.7913 0.718295 23.2376 0.718295C22.0518 0.718295 21.3693 1.52595 21.3693 2.94308C21.3693 4.36022 22.0518 5.16787 23.2376 5.16787V5.16837Z" fill="var(--fill-0, #FF5500)"/>
<path id="Vector_2" d="M20.9712 3.01674C20.9712 1.42333 20.2273 0.725973 19.1589 0.725973C17.9954 0.725973 17.2906 1.56301 17.2906 2.92885C17.2906 4.61039 18.0849 5.16833 19.2372 5.16833C19.9364 5.16833 20.4902 5.02144 20.8707 4.82326V3.80423C20.8707 3.78331 20.8542 3.77012 20.84 3.77958C20.5644 3.95958 19.9375 4.17718 19.2484 4.17718C18.6426 4.17718 18.2617 3.9195 18.1762 3.28861H20.9246C20.9418 3.28861 20.9568 3.27218 20.9593 3.24977C20.9674 3.17284 20.9716 3.09217 20.9716 3.01699L20.9712 3.01674ZM19.1589 1.68052C19.701 1.68052 19.9999 1.9997 20.1105 2.46627H18.1927C18.2867 1.9621 18.5792 1.68052 19.1589 1.68052V1.68052Z" fill="var(--fill-0, #FF5500)"/>
<path id="Vector_3" d="M15.3037 0.718572C14.7193 0.718572 14.321 1.01808 14.0729 1.46249C14.0667 1.4737 14.0536 1.46847 14.0532 1.45452L14.0394 0.836085H13.2059V6.52652H14.0617V4.44489C14.0617 4.43095 14.075 4.42522 14.0815 4.43643C14.3299 4.87337 14.726 5.16815 15.3037 5.16815C16.2938 5.16815 16.9091 4.23576 16.9091 2.94336C16.9091 1.65096 16.2938 0.718572 15.3037 0.718572V0.718572ZM15.0463 4.14762C14.4701 4.14762 14.0617 3.67035 14.0617 2.94336C14.0617 2.21637 14.4701 1.7391 15.0463 1.7391C15.6673 1.7391 16.0086 2.20168 16.0086 2.94336C16.0086 3.68504 15.6673 4.14762 15.0463 4.14762Z" fill="var(--fill-0, #FF5500)"/>
<path id="Vector_4" d="M10.4811 5.0581H11.3369V1.85686H12.7689V0.836084H9.04901V1.85686H10.4811V5.0581Z" fill="var(--fill-0, #0A1E78)"/>
<path id="Vector_5" d="M5.94916 3.17558V0.836017H5.08765V5.12551C5.08765 5.186 5.14 5.22086 5.17718 5.18526L7.7615 2.71374V5.05804H8.62301V0.768298C8.62301 0.707798 8.57065 0.672943 8.53348 0.708545L5.94916 3.17558V3.17558Z" fill="var(--fill-0, #0A1E78)"/>
<path id="Vector_6" d="M0.41444 5.10885C0.17526 5.10885 0 5.0944 0 5.0944V4.07986H0.139032C0.301014 4.07986 0.422406 4.02907 0.503397 3.92774C0.584389 3.82641 0.644136 3.66084 0.68283 3.43129C0.721523 3.20199 0.751871 2.85767 0.773874 2.39857C0.788479 2.07491 0.803273 1.55556 0.818068 0.84052C0.821672 0.618439 0.827172 0.3381 0.83457 0H4.28684V5.0583H3.33733V0.971229H1.72282C1.71902 1.03895 1.70992 1.30709 1.69531 1.77565C1.68792 2.10429 1.68052 2.31193 1.67331 2.39882C1.64012 3.09942 1.58853 3.6357 1.51873 4.00766C1.44874 4.37986 1.32905 4.65622 1.15986 4.83747C0.990483 5.01872 0.742008 5.10934 0.414629 5.10934L0.41444 5.10885Z" fill="var(--fill-0, #0A1E78)"/>
</g>
</svg>
