<svg preserveAspectRatio="none" width="100%" height="100%" overflow="visible" style="display: block;" viewBox="0 0 24.7009 28.7328" fill="none" xmlns="http://www.w3.org/2000/svg">
<g id="Group 2">
<path id="Vector" d="M18.9876 2.62591C25.4279 8.72292 21.183 19.2742 12.4867 19.4989L2.97946 19.4835L2.94804 19.3867C2.99132 17.6676 2.89611 15.9409 2.94804 14.2228C3.00862 12.2136 3.43879 10.5917 4.6671 8.98608C5.78323 7.5273 7.31157 6.22686 9.10371 5.714C8.9803 5.86626 8.83542 6.02076 8.72451 6.18391C6.33231 9.70089 9.28417 14.3442 13.4692 13.6211C17.2788 12.9627 18.7969 8.06324 15.8998 5.4409C12.2626 2.14894 5.86753 4.48569 3.41667 8.21614L2.59737 9.56017C2.64193 7.65263 3.25127 5.70727 4.35265 4.15168C7.75519 -0.654508 14.6789 -1.4533 18.9876 2.62591Z" fill="var(--fill-0, #AE2483)"/>
<path id="Vector_2" d="M6.31471 28.6651L6.299 28.4731C6.22175 28.5115 6.12142 28.5753 6.04321 28.6019C4.54052 29.1103 3.06699 27.8163 3.54139 26.2604C3.89398 25.1042 5.26173 24.5628 6.31439 25.1712V24.9789H7.27633V28.6651H6.31471ZM5.15243 25.8837C4.62546 25.9722 4.29498 26.5928 4.43826 27.0954C4.74919 28.1862 6.51248 27.9205 6.30702 26.605C6.22656 26.0899 5.63452 25.8026 5.15243 25.8837Z" fill="var(--fill-0, #AE2483)"/>
<path id="Vector_3" d="M0.961679 23.921V26.293L2.35603 24.9788H3.65422L1.73162 26.8216L3.71833 28.665H2.35603L0.961679 27.3829V28.665H5.67858e-05V23.921H0.961679Z" fill="var(--fill-0, #AE2483)"/>
<path id="Vector_4" d="M21.0274 23.921V28.665H20.4184V28.1842C19.6539 28.9279 18.5086 28.9285 17.8274 28.0666C17.0126 27.0351 17.5114 25.2583 18.8673 25.0465C19.4705 24.9522 19.9811 25.1484 20.4184 25.5558V23.921H21.0274ZM20.0879 25.9501C19.5651 25.3753 18.6134 25.5221 18.2451 26.1873C17.6854 27.1979 18.5467 28.5256 19.6978 28.0567C20.495 27.7319 20.6411 26.5581 20.0879 25.9501Z" fill="var(--fill-0, #AE2483)"/>
<path id="Vector_5" d="M24.5853 25.8119L23.991 25.9664C23.9475 25.9581 23.9151 25.7558 23.8859 25.6943C23.5977 25.0878 22.2563 25.2385 22.4457 25.9805C22.4851 26.135 22.7483 26.2293 22.8861 26.277C23.3387 26.4341 23.9869 26.4242 24.3452 26.7412C25.0139 27.3326 24.6693 28.3035 23.8965 28.601C22.9583 28.9622 21.7684 28.575 21.5735 27.5121L22.1781 27.3531C22.3156 28.0381 23.0445 28.2743 23.6519 28.0362C24.0199 27.8916 24.1856 27.4188 23.8006 27.1896C23.2012 26.8325 21.9078 27.0072 21.7726 26.0764C21.6037 24.9118 22.8124 24.5243 23.7439 24.8102C24.2417 24.9628 24.4699 25.3205 24.585 25.8119H24.5853Z" fill="var(--fill-0, #AE2483)"/>
<path id="Vector_6" d="M13.046 23.921V26.5815L13.1425 26.5338L14.6327 25.2032H15.4821L13.5999 26.8857L15.5462 28.665H14.6968C14.3564 28.308 13.9592 28.0102 13.589 27.6884C13.4499 27.5675 13.296 27.3883 13.1425 27.2704C13.1101 27.2454 13.1021 27.2085 13.046 27.2226V28.665H12.437V23.921H13.046Z" fill="var(--fill-0, #AE2483)"/>
<path id="Vector_7" d="M9.03908 24.9788L9.05511 25.2352C9.31763 24.6185 9.82729 24.0044 10.5386 23.9303C11.0508 23.8768 11.579 24.2784 11.3165 24.8041C11.0328 25.3727 10.1171 25.1131 10.2331 24.4255C10.2523 24.3118 10.328 24.2483 10.3533 24.1454C9.80613 24.331 9.44136 24.7615 9.23974 25.2913C9.20192 25.3904 9.0394 25.8901 9.0394 25.9564V28.665H8.07778V24.9788H9.0394H9.03908Z" fill="var(--fill-0, #AE2483)"/>
<path id="Vector_8" d="M11.2827 25.4597H10.321V28.6651H11.2827V25.4597Z" fill="var(--fill-0, #AE2483)"/>
<path id="Vector_9" d="M16.7966 25.2032H16.1875V28.665H16.7966V25.2032Z" fill="var(--fill-0, #AE2483)"/>
<path id="Vector_10" d="M16.2287 23.9945C16.5679 23.7217 17.1205 24.1666 16.8432 24.5923C16.5682 25.0144 15.9518 24.7237 16.0662 24.232C16.0749 24.1948 16.2025 24.0156 16.2287 23.9945Z" fill="var(--fill-0, #AE2483)"/>
</g>
</svg>
