<svg preserveAspectRatio="none" width="100%" height="100%" overflow="visible" style="display: block;" viewBox="0 0 4.40027 4.00674" fill="none" xmlns="http://www.w3.org/2000/svg">
<g id="Group">
<path id="Vector" d="M0.0272528 0.000235545C-0.000348593 0.000235545 -0.00811126 0.0188826 0.0112959 0.0403618C0.118682 0.157907 0.185313 0.320299 0.185313 0.500394C0.185313 0.680489 0.118899 0.841938 0.0121593 0.959483C-0.00854169 0.982379 -0.00185646 1.00032 0.0369579 1.00032H2.33542C2.46566 0.880884 2.54911 0.701261 2.54911 0.500159C2.54911 0.299057 2.46566 0.119434 2.3352 0H0.0270369L0.0272528 0.000235545Z" fill="var(--fill-0, #0A1E78)"/>
<path id="Vector_2" d="M0.0272813 1.50327C-0.000320054 1.50327 -0.00808272 1.52192 0.0113245 1.5434C0.118711 1.66094 0.185341 1.82334 0.185341 2.00343C0.185341 2.18353 0.118927 2.34497 0.0121879 2.46252C-0.00851315 2.48542 -0.00182792 2.50335 0.0369865 2.50335H1.43969C1.56994 2.38392 1.65339 2.2043 1.65339 2.00319C1.65339 1.80209 1.56994 1.62247 1.43948 1.50304H0.0270654L0.0272813 1.50327Z" fill="var(--fill-0, #0A1E78)"/>
<path id="Vector_3" d="M0.0271865 3.00638C-0.00213992 3.00638 -0.00860793 3.02455 0.0120931 3.04721C0.119048 3.16476 0.185246 3.32668 0.185246 3.50654C0.185246 3.6864 0.118833 3.84808 0.0120931 3.96563C-0.00860793 3.98852 -0.0019227 4.00646 0.0368917 4.00646H0.543848C0.674092 3.88703 0.757544 3.7074 0.757544 3.5063C0.757544 3.3052 0.674095 3.12558 0.543635 3.00614H0.0271865V3.00638Z" fill="var(--fill-0, #0A1E78)"/>
<path id="Vector_4" d="M4.18634 0.00027518C4.08995 0.00027518 3.86634 0.00027518 3.56941 0.00027518C3.69987 0.119709 3.7831 0.29886 3.78332 0.500434C3.78332 0.702008 3.69987 0.881159 3.56941 1.00059C3.86634 1.00059 4.08995 1.00059 4.18634 1.00059C4.3168 0.881395 4.40025 0.702008 4.40025 0.500434C4.40025 0.29886 4.3168 0.119709 4.18634 0.00027518Z" fill="var(--fill-0, #FF5500)"/>
<path id="Vector_5" d="M3.56921 0.00027518C3.47282 0.00027518 3.24921 0.00027518 2.95228 0.00027518C3.08274 0.119709 3.16597 0.29886 3.16619 0.500434C3.16619 0.702008 3.08274 0.881159 2.95228 1.00059C3.24921 1.00059 3.47282 1.00059 3.56921 1.00059C3.69967 0.881395 3.78312 0.702008 3.78312 0.500434C3.78312 0.29886 3.69967 0.119709 3.56921 0.00027518Z" fill="var(--fill-0, #6262D9)"/>
<path id="Vector_6" d="M4.18636 1.50331C4.08997 1.50331 2.97061 1.50331 2.67368 1.50331C2.80414 1.62275 2.88738 1.8019 2.88759 2.00347C2.88759 2.20505 2.80414 2.3842 2.67368 2.50363C2.97061 2.50363 4.08997 2.50363 4.18636 2.50363C4.31682 2.38443 4.40027 2.20505 4.40027 2.00347C4.40027 1.8019 4.31682 1.62275 4.18636 1.50331Z" fill="var(--fill-0, #FF5500)"/>
<path id="Vector_7" d="M2.67345 1.50331C2.57706 1.50331 2.35344 1.50331 2.05651 1.50331C2.18697 1.62275 2.27021 1.8019 2.27043 2.00347C2.27043 2.20505 2.18697 2.3842 2.05651 2.50363C2.35344 2.50363 2.57706 2.50363 2.67345 2.50363C2.80391 2.38443 2.88736 2.20505 2.88736 2.00347C2.88736 1.8019 2.80391 1.62275 2.67345 1.50331Z" fill="var(--fill-0, #6262D9)"/>
<path id="Vector_8" d="M2.95229 0.00027518C2.8559 0.00027518 2.63229 0.00027518 2.33536 0.00027518C2.46582 0.119709 2.54905 0.29886 2.54926 0.500434C2.54926 0.702008 2.46582 0.881159 2.33536 1.00059C2.63229 1.00059 2.8559 1.00059 2.95229 1.00059C3.08275 0.881395 3.1662 0.702008 3.1662 0.500434C3.1662 0.29886 3.08275 0.119709 2.95229 0.00027518Z" fill="var(--fill-0, #3D3DC7)"/>
<path id="Vector_9" d="M2.05632 1.50331C1.95993 1.50331 1.73631 1.50331 1.43938 1.50331C1.56984 1.62275 1.65308 1.8019 1.6533 2.00347C1.6533 2.20505 1.56984 2.3842 1.43938 2.50363C1.73631 2.50363 1.95993 2.50363 2.05632 2.50363C2.18678 2.38443 2.27023 2.20505 2.27023 2.00347C2.27023 1.8019 2.18678 1.62275 2.05632 1.50331Z" fill="var(--fill-0, #3D3DC7)"/>
<path id="Vector_10" d="M4.18636 3.00642C4.08997 3.00642 2.07485 3.00642 1.77771 3.00642C1.90817 3.12585 1.9914 3.305 1.99162 3.50658C1.99162 3.70815 1.90817 3.8873 1.77771 4.00674C2.07464 4.00674 4.08997 4.00674 4.18636 4.00674C4.31682 3.88754 4.40027 3.70815 4.40027 3.50658C4.40027 3.305 4.31682 3.12585 4.18636 3.00642Z" fill="var(--fill-0, #FF5500)"/>
<path id="Vector_11" d="M1.77772 3.00642C1.68133 3.00642 1.45772 3.00642 1.16079 3.00642C1.29124 3.12585 1.37448 3.305 1.37469 3.50658C1.37469 3.70815 1.29124 3.8873 1.16079 4.00674C1.45772 4.00674 1.68133 4.00674 1.77772 4.00674C1.90818 3.88754 1.99163 3.70815 1.99163 3.50658C1.99163 3.305 1.90818 3.12585 1.77772 3.00642Z" fill="var(--fill-0, #6262D9)"/>
<path id="Vector_12" d="M1.16055 3.00642C1.06416 3.00642 0.840551 3.00642 0.543621 3.00642C0.67408 3.12585 0.757314 3.305 0.757529 3.50658C0.757529 3.70815 0.67408 3.8873 0.543621 4.00674C0.840551 4.00674 1.06416 4.00674 1.16055 4.00674C1.29101 3.88754 1.37446 3.70815 1.37446 3.50658C1.37446 3.305 1.29101 3.12585 1.16055 3.00642Z" fill="var(--fill-0, #3D3DC7)"/>
</g>
</svg>
