<svg preserveAspectRatio="none" width="100%" height="100%" overflow="visible" style="display: block;" viewBox="0 0 26.3499 26" fill="none" xmlns="http://www.w3.org/2000/svg">
<g id="Group">
<path id="Vector" d="M12.4407 6.301C10.965 6.26308 5.21918 5.28214 2.08844 9.13515C-1.94231 14.0948 0.560705 19.2072 3.71975 21.7996C5.96013 23.6387 11.1343 26.1791 14.2395 25.99C17.2327 25.8078 22.3344 22.5604 24.4073 19.2032C26.9125 15.1453 27.6869 9.5093 22.4584 6.46572C17.4761 3.56535 14.0782 6.34346 12.4407 6.301Z" fill="var(--fill-0, white)"/>
<path id="Vector_2" d="M12.4407 6.301C10.965 6.26308 5.21918 5.28214 2.08844 9.13515C-1.94231 14.0948 0.560705 19.2072 3.71975 21.7996C5.96013 23.6387 11.1343 26.1791 14.2395 25.99C17.2327 25.8078 22.3344 22.5604 24.4073 19.2032C26.9125 15.1453 27.6869 9.5093 22.4584 6.46572C17.4761 3.56535 14.0782 6.34346 12.4407 6.301Z" fill="var(--fill-0, #93CDDC)"/>
<path id="Vector_3" d="M12.5035 6.1624C11.1835 6.12957 6.04278 5.28164 3.24203 8.61277C-0.363622 12.9005 1.87562 17.3201 4.70184 19.5616C6.70617 21.151 11.3352 23.3473 14.1128 23.1842C16.7907 23.0263 21.3552 20.2193 23.209 17.3167C25.451 13.809 26.1433 9.09956 21.4656 6.46862C17.008 3.96108 13.9684 6.19919 12.5035 6.1624Z" fill="var(--fill-0, white)"/>
<path id="Vector_4" d="M22.7691 0.346937C22.7691 0.346937 18.6303 -0.701929 15.9178 0.847879C12.7984 2.63033 13.0214 6.11824 13.0214 6.11824C15.178 5.69711 15.9982 7.60069 19.4193 6.48277C23.2542 5.23013 22.7691 0.346937 22.7691 0.346937ZM9.51993 1.3092C9.51993 1.3092 9.31502 2.45655 9.80691 3.56316C10.2988 4.66919 11.1592 4.95617 11.6511 5.079C12.1429 5.20183 12.6343 5.16108 12.6343 5.16108C12.6343 5.16108 12.5114 4.75127 12.5935 3.80882C12.6756 2.86637 12.5935 2.12882 11.6103 1.63693C10.6265 1.14505 9.64332 1.59618 9.51993 1.3092Z" fill="var(--fill-0, #005A56)"/>
<path id="Vector_5" d="M10.8507 10.7942C10.0062 10.8225 10.725 12.7171 11.1926 11.889C11.3986 11.5329 11.2531 10.7795 10.8507 10.7942ZM10.3667 13.6584C9.97956 13.6708 9.99258 13.1812 9.86862 12.0786C9.65862 10.2078 9.79164 10.4297 10.3118 10.4093C10.5258 10.402 10.8858 9.95651 11.3975 10.2061C12.3065 10.6409 12.2997 13.0074 10.7471 12.6327C10.3396 12.5342 10.905 13.638 10.3667 13.6584Z" fill="var(--fill-0, #18476A)"/>
<path id="Vector_6" d="M13.3248 13.3669C12.8239 13.3845 13.3141 12.7901 13.4024 12.4811C13.4499 12.3101 13.1409 12.4183 12.8703 12.2383C12.4627 11.9705 12.0784 10.4371 12.4327 10.2017C12.9626 9.84901 12.9416 11.6388 13.3424 11.6247C13.828 11.6077 13.5088 10.3573 13.8195 10.1066C14.6233 9.46468 14.3726 13.3324 13.3248 13.3669Z" fill="var(--fill-0, #F36156)"/>
<path id="Vector_7" d="M16.4182 12.4318C16.288 12.4363 16.1426 12.3373 16.1114 12.1069C16.0978 12.0061 16.069 11.2205 16.0367 11.0473C15.9948 10.8271 15.8884 10.711 15.7673 10.7524C15.7129 10.7705 15.606 10.8503 15.4928 11.1825C15.465 11.2629 15.3558 11.9342 15.3343 12.0169C15.2703 12.2586 15.195 12.3876 15.0897 12.4363C15.0586 12.4505 15.0258 12.459 14.9918 12.4595C14.8803 12.4635 14.7858 12.3888 14.7416 12.3129C14.672 12.1935 14.6743 11.9999 14.689 11.859C14.6907 11.842 14.7411 11.028 14.7512 10.9533C14.7994 10.5984 14.8695 10.4359 14.9861 10.4201C15.1446 10.398 15.1928 10.3352 15.2663 10.2854C15.2895 10.2695 15.619 10.0561 15.7911 10.0301C16.0497 9.9916 16.2637 10.1173 16.3933 10.2214C16.4895 10.3001 16.5343 10.3346 16.5988 10.3374C16.6469 10.3357 16.8829 10.1608 16.9175 10.1376C17.0397 10.0556 17.1852 10.0097 17.3369 10.0046C17.4965 9.99896 17.6278 10.0391 17.698 10.0793C17.8475 10.1637 18.0116 10.4156 18.0495 10.6171C18.0784 10.7784 18.1871 11.7378 18.1893 11.9342C18.1916 12.1159 18.1673 12.3299 17.9607 12.3723C17.8265 12.4012 17.6352 12.2942 17.5803 12.0537C17.5565 11.9478 17.4631 11.2001 17.4631 11.2001C17.4501 11.1033 17.3731 10.8339 17.239 10.8248H17.2384C17.1444 10.8282 17.0375 10.9595 16.9797 11.0818C16.9378 11.1707 16.798 11.992 16.7675 12.0729C16.6905 12.2727 16.6441 12.3933 16.4561 12.4273C16.4431 12.4301 16.4307 12.4312 16.4182 12.4318Z" fill="var(--fill-0, #18476A)"/>
<path id="Vector_8" d="M7.5071 9.33611C7.42673 9.33894 7.40465 9.37403 7.35597 9.48215C7.30333 9.59479 7.29031 9.95932 7.31522 10.5644L7.31635 10.5899C7.32654 10.8361 7.3939 11.5754 7.43126 11.6948C7.47258 11.825 7.49126 11.885 7.61635 11.9167C7.70805 11.9393 7.82918 11.8918 7.99729 11.7678C8.36635 11.4972 8.54578 11.1457 8.59729 10.5916C8.63239 10.2152 8.41276 9.80366 8.18069 9.62309C7.89767 9.40347 7.72107 9.3497 7.54277 9.33668C7.52918 9.33611 7.51786 9.33554 7.5071 9.33611ZM5.23107 9.97969C5.35164 9.97969 5.42296 10.0261 5.45579 10.0544C5.52145 10.1127 5.53786 10.2027 5.50164 10.3018C5.49088 10.3323 5.46145 10.3652 5.41503 10.4161C5.329 10.5095 5.27522 10.7048 5.22994 10.9018C5.18353 11.1016 5.25485 11.4412 5.3822 11.6297C5.50334 11.8091 5.56447 11.8674 5.79598 11.9659C6.0122 12.057 6.2856 12.0842 6.40786 12.0808L6.4322 12.0791C6.48937 12.074 6.53182 12.0565 6.55786 12.0259C6.58843 11.9903 6.60031 11.9353 6.59182 11.8623C6.57654 11.7157 6.57031 11.5114 6.56409 11.2957C6.55956 11.1282 6.55447 10.9538 6.54371 10.7959C6.52164 10.4365 6.44975 9.70234 6.42598 9.56479C6.40503 9.44366 6.3756 9.42724 6.34673 9.41139C6.31616 9.39385 6.26862 9.38536 6.20918 9.38762C6.11409 9.39102 6.02183 9.41875 5.9822 9.4346C5.7156 9.54045 5.60862 9.61347 5.55145 9.65875C5.40598 9.77649 5.33239 9.85517 5.23107 9.97969ZM7.09673 13.5446H7.09616C6.82503 13.5542 6.70616 13.3136 6.68239 13.2203L6.68692 13.2191C6.66994 13.1755 6.64843 13.1031 6.6139 12.9836C6.58333 12.9582 6.53409 12.9276 6.47975 12.9265C6.30258 12.9236 5.90183 12.8416 5.65051 12.7408C5.03466 12.4929 4.88466 12.3106 4.75164 12.1493C4.72956 12.1227 4.70805 12.0961 4.68428 12.0701C4.41881 11.7803 4.29711 11.3823 4.35089 10.9782C4.40296 10.5797 4.62768 10.2503 4.83485 10.1093C4.80994 10.0923 4.78673 10.0708 4.76692 10.0448C4.67522 9.92705 4.65258 9.60554 4.98541 9.25007C5.269 8.94498 5.52937 8.82385 5.71956 8.73441C5.81522 8.69026 5.91654 8.66309 6.0139 8.63706C6.08409 8.61781 6.15428 8.59913 6.22447 8.57309C6.35352 8.52668 6.37786 8.3914 6.38182 8.33592L6.39031 8.30479C6.47296 8.13668 6.59069 8.03762 6.72145 8.0263L6.74579 8.0246C6.95352 8.01781 7.06163 8.15083 7.09107 8.2663C7.11994 8.37668 7.22182 8.4446 7.42277 8.48649L7.55182 8.51423C8.16654 8.64272 8.27465 8.71177 8.63125 8.93988L8.74899 9.01517C9.13276 9.25687 9.36427 9.87554 9.41691 10.1371C9.46502 10.3816 9.50635 10.7693 9.31899 11.3133C9.1554 11.7876 8.89559 12.0384 8.72295 12.2042C8.34201 12.5704 7.77654 12.7595 7.59031 12.802C7.52635 12.8161 7.50427 12.8852 7.47371 13.1699C7.46069 13.291 7.43635 13.5163 7.13239 13.5423C7.12163 13.5435 7.10918 13.5446 7.09673 13.5446Z" fill="var(--fill-0, #FAB41B)"/>
<path id="Vector_9" d="M19.2858 14.5753C18.6105 14.7893 18.5527 16.3266 19.6752 15.9061C20.6533 15.5387 20.1897 14.2872 19.2858 14.5753ZM18.341 18.4074C17.702 18.1482 18.5318 17.6314 18.8097 16.9951C18.9552 16.6612 18.8777 16.617 18.6399 16.5355C17.8927 16.278 17.7201 15.6933 17.9878 14.9331C18.4775 13.5259 20.6799 13.445 20.8543 14.6863C20.8565 14.7027 21.2482 17.1661 21.2595 17.3014C21.3116 17.9087 20.7246 17.8748 20.8344 17.8702C20.1484 17.8985 20.4875 16.5859 20.1014 16.6017C19.4012 16.6317 19.2807 18.7883 18.341 18.4074ZM16.8535 18.5461C16.0809 18.5755 16.7307 16.8338 16.382 16.5429C16.1363 16.3346 14.9312 16.4325 14.8248 16.4806C14.1926 16.7642 14.7009 18.494 14.0046 18.5217C13.4086 18.5415 13.579 17.654 13.7086 16.0889C13.8116 14.8476 13.6803 13.9323 14.3024 13.878C14.9443 13.8384 14.3363 15.4357 14.715 15.6242C15.0263 15.7804 15.7022 15.7504 16.086 15.6525C16.5014 15.545 16.5943 15.1017 16.5943 14.6829C16.5943 13.758 16.8139 13.655 16.9146 13.6295C17.3544 13.5174 17.3941 14.4417 17.3533 15.1612C17.1744 18.3395 17.376 18.5257 16.8535 18.5461ZM11.3839 14.9682C10.5745 15.1708 10.7828 16.3997 11.642 16.2548C12.5845 16.0957 12.2363 14.7559 11.3839 14.9682ZM10.1052 18.5121C9.23239 18.5466 10.4607 17.2725 10.5524 17.1446C10.8122 16.7806 10.7154 16.767 10.4964 16.6312C9.81767 16.2112 9.81711 15.5959 10.2507 14.9297C11.0731 13.6527 13.2292 14.0348 13.0979 15.2987C13.0962 15.3151 12.8828 17.7921 12.8596 17.9353C12.7452 18.6599 11.9562 18.4951 12.0246 17.8402C12.1645 16.5112 11.5028 17.131 10.7097 18.1934C10.6056 18.3321 10.4347 18.4991 10.1052 18.5121ZM6.18995 19.2604C5.59844 19.2842 5.99183 18.4583 5.19372 14.778C5.00806 13.9255 5.75976 13.7557 5.93579 14.4468C6.17862 15.3966 6.30768 16.0261 6.48655 16.085C6.829 16.197 7.54051 16.0402 7.91862 15.8733C8.6522 15.55 7.9407 13.6187 8.53617 13.4942C9.03994 13.385 9.04843 14.1525 9.28447 16.3482C9.44352 17.8425 9.90484 18.7906 9.1973 18.8172C8.38617 18.8393 8.99522 16.6533 8.03692 16.6917C7.87107 16.6991 7.7556 16.7308 7.50485 16.7783C7.02768 16.8706 6.56523 16.9142 6.54711 17.4248C6.52957 18.0049 6.8024 19.2378 6.18995 19.2604Z" fill="var(--fill-0, #18476A)"/>
<path id="Vector_10" d="M20.1037 11.4044C20.016 11.8148 19.7035 12.0684 19.4239 11.9693C19.1437 11.8703 19.0588 11.6189 19.1765 11.1899C19.2937 10.7603 19.4912 10.5548 19.8195 10.5995C20.1331 10.6425 20.192 10.9946 20.1037 11.4044ZM19.9616 9.99667C19.3152 9.82969 18.7441 10.2231 18.5392 11.0631C18.3343 11.9025 18.6173 12.4397 19.2716 12.5959C19.9254 12.7521 20.6188 12.2738 20.7654 11.4044C20.912 10.5355 20.4467 10.1218 19.9616 9.99667Z" fill="var(--fill-0, #49BC46)"/>
</g>
</svg>
