<svg preserveAspectRatio="none" width="100%" height="100%" overflow="visible" style="display: block;" viewBox="0 0 301 24" fill="none" xmlns="http://www.w3.org/2000/svg">
<g id="all">
<g clip-path="url(#clip0_0_4)">
<rect width="301" height="24" rx="12" fill="var(--fill-0, white)" fill-opacity="0.4"/>
<g id="active">
<g clip-path="url(#clip1_0_4)">
<rect width="176" height="24" rx="12" fill="var(--fill-0, white)"/>
<path id="Star 1" d="M148.812 7.51343C149.004 6.13465 150.996 6.13465 151.188 7.51343L151.437 9.29114C151.493 9.69604 151.752 10.0443 152.123 10.2153L153.632 10.91C154.563 11.3385 154.563 12.6615 153.632 13.09L152.123 13.7847C151.752 13.9557 151.493 14.304 151.437 14.7089L151.188 16.4866C150.996 17.8654 149.004 17.8654 148.812 16.4866L148.563 14.7089C148.507 14.304 148.248 13.9557 147.877 13.7847L146.368 13.09C145.437 12.6615 145.437 11.3385 146.368 10.91L147.877 10.2153C148.248 10.0443 148.507 9.69604 148.563 9.29114L148.812 7.51343Z" fill="var(--fill-0, #0088FE)"/>
<path id="Star 2" opacity="0.5" d="M26.8115 7.51343C27.004 6.13465 28.996 6.13465 29.1885 7.51343L29.4366 9.29114C29.4932 9.69604 29.7519 10.0443 30.1233 10.2153L31.6323 10.91C32.5632 11.3385 32.5632 12.6615 31.6323 13.09L30.1233 13.7847C29.7519 13.9557 29.4932 14.304 29.4366 14.7089L29.1885 16.4866C28.996 17.8654 27.004 17.8654 26.8115 16.4866L26.5634 14.7089C26.5068 14.304 26.2481 13.9557 25.8767 13.7847L24.3677 13.09C23.4368 12.6615 23.4368 11.3385 24.3677 10.91L25.8767 10.2153C26.2481 10.0443 26.5068 9.69604 26.5634 9.29114L26.8115 7.51343Z" fill="var(--fill-0, #5FAF2D)"/>
</g>
</g>
<path id="Star 1_2" opacity="0.5" d="M271.812 7.51343C272.004 6.13465 273.996 6.13465 274.188 7.51343L274.437 9.29114C274.493 9.69604 274.752 10.0443 275.123 10.2153L276.632 10.91C277.563 11.3385 277.563 12.6615 276.632 13.09L275.123 13.7847C274.752 13.9557 274.493 14.304 274.437 14.7089L274.188 16.4866C273.996 17.8654 272.004 17.8654 271.812 16.4866L271.563 14.7089C271.507 14.304 271.248 13.9557 270.877 13.7847L269.368 13.09C268.437 12.6615 268.437 11.3385 269.368 10.91L270.877 10.2153C271.248 10.0443 271.507 9.69604 271.563 9.29114L271.812 7.51343Z" fill="var(--fill-0, #F76100)"/>
</g>
</g>
<defs>
<clipPath id="clip0_0_4">
<rect width="301" height="24" rx="12" fill="white"/>
</clipPath>
<clipPath id="clip1_0_4">
<rect width="176" height="24" rx="12" fill="white"/>
</clipPath>
</defs>
</svg>
