<svg preserveAspectRatio="none" width="100%" height="100%" overflow="visible" style="display: block;" viewBox="0 0 8.66094 11.0413" fill="none" xmlns="http://www.w3.org/2000/svg">
<path id="Star 2" opacity="0.5" d="M3.14199 1.03409C3.33447 -0.344696 5.32647 -0.344696 5.51894 1.03409L5.76711 2.8118C5.82364 3.21669 6.08241 3.56495 6.45376 3.73592L7.96276 4.43062C8.89366 4.85919 8.89366 6.18213 7.96276 6.61069L6.45376 7.30539C6.0824 7.47636 5.82363 7.82462 5.76711 8.22952L5.51894 10.0072C5.32647 11.386 3.33447 11.386 3.14199 10.0072L2.89382 8.22952C2.8373 7.82462 2.57853 7.47636 2.20717 7.30539L0.698175 6.61069C-0.232726 6.18213 -0.232725 4.85919 0.698177 4.43062L2.20717 3.73592C2.57853 3.56495 2.8373 3.21669 2.89382 2.8118L3.14199 1.03409Z" fill="var(--fill-0, #5FAF2D)"/>
</svg>
