<svg preserveAspectRatio="none" width="100%" height="100%" overflow="visible" style="display: block;" viewBox="0 0 19 19" fill="none" xmlns="http://www.w3.org/2000/svg">
<path id="vector" d="M9.49956 0C10.1674 4.53942e-05 10.821 0.0622585 11.4521 0.181731C11.9135 0.269319 12.2817 0.601343 12.454 1.03139L12.9632 2.30257C13.4371 2.51019 13.8878 2.75935 14.3086 3.04472L15.7531 2.82398C16.2078 2.75488 16.6749 2.89238 16.9843 3.2274C17.8346 4.14884 18.5013 5.22918 18.9282 6.41483C19.0892 6.86227 18.9706 7.35447 18.6609 7.71836L17.7693 8.76497C17.7927 9.00687 17.8045 9.25276 17.8045 9.50047C17.8045 9.75001 17.7921 9.99709 17.7683 10.2407L18.659 11.2864C18.9689 11.6506 19.0878 12.1432 18.9264 12.5909C18.4983 13.7773 17.8306 14.8578 16.9786 15.7792C16.6691 16.1139 16.2017 16.2508 15.7473 16.1817L14.2991 15.9619C13.8814 16.2443 13.4348 16.4906 12.965 16.6964L12.455 17.9686C12.2826 18.3985 11.9143 18.7297 11.4531 18.8173C10.8217 18.9369 10.1678 19 9.49956 19C8.83045 18.9999 8.17633 18.9363 7.54417 18.8163C7.08294 18.7288 6.71559 18.3975 6.54316 17.9676L6.03314 16.6955C5.56452 16.49 5.11863 16.2436 4.70196 15.9619L3.25373 16.1827C2.7995 16.2518 2.33293 16.1144 2.0234 15.7802C1.17113 14.8588 0.502949 13.7782 0.0746686 12.5918C-0.0869533 12.144 0.0308889 11.6507 0.341096 11.2864L1.23172 10.2416C1.2079 9.99738 1.19559 9.74972 1.19557 9.49951C1.19557 9.25231 1.20752 9.00735 1.23078 8.76593L0.339193 7.71836C0.0293539 7.35444 -0.0891925 6.86234 0.071814 6.41483C0.498483 5.22941 1.16391 4.14967 2.01389 3.22835C2.32338 2.89291 2.79104 2.75566 3.24612 2.82492L4.69054 3.04472C5.11235 2.75863 5.56365 2.50861 6.03885 2.30067L6.54887 1.03045C6.72145 0.60014 7.09001 0.268977 7.55178 0.181731C8.18167 0.0627611 8.83302 -1.44031e-06 9.49956 0ZM9.51288 6.53853C7.88443 6.53872 6.5642 7.85877 6.5641 9.48714C6.5641 11.1156 7.88437 12.4356 9.51288 12.4358C11.1416 12.4358 12.4626 11.1157 12.4626 9.48714C12.4625 7.85865 11.1415 6.53853 9.51288 6.53853Z" fill="var(--fill-0, #AFBFCD)"/>
</svg>
