<svg preserveAspectRatio="none" width="100%" height="100%" overflow="visible" style="display: block;" viewBox="0 0 19 19" fill="none" xmlns="http://www.w3.org/2000/svg">
<g id="vector">
<path fill-rule="evenodd" clip-rule="evenodd" d="M5.71716 10.5278C7.27385 10.6857 8.48875 11.9999 8.48875 13.5982V15.9132L8.47239 16.2276C8.32507 17.6807 7.17025 18.8353 5.71716 18.9828L5.40193 19H3.08682C1.48839 19 0.174197 17.7844 0.0163643 16.2276L0 15.9132V13.5982C4.97183e-08 11.8934 1.38202 10.5114 3.08682 10.5114H5.40193L5.71716 10.5278Z" fill="var(--fill-0, #0088FE)"/>
<path fill-rule="evenodd" clip-rule="evenodd" d="M15.7493 10.5278C17.306 10.6857 18.5209 11.9999 18.5209 13.5982V15.9132L18.5046 16.2276C18.3572 17.6807 17.2024 18.8353 15.7493 18.9828L15.4341 19H13.119C11.5206 19 10.2064 17.7844 10.0485 16.2276L10.0322 15.9132V13.5982C10.0322 11.8934 11.4142 10.5114 13.119 10.5114H15.4341L15.7493 10.5278Z" fill="var(--fill-0, #0088FE)"/>
<path fill-rule="evenodd" clip-rule="evenodd" d="M12.0941 0.904089C13.2995 -0.301363 15.2535 -0.301363 16.459 0.904089L18.0963 2.54048L18.3073 2.7756C19.2963 3.988 19.2265 5.77604 18.0963 6.9062L16.459 8.54346L16.2248 8.75446C15.0931 9.67761 13.46 9.6776 12.3283 8.75446L12.0941 8.54346L10.4568 6.9062C9.32659 5.77604 9.25676 3.988 10.2458 2.7756L10.4568 2.54048L12.0941 0.904089Z" fill="var(--fill-0, #0088FE)"/>
<path fill-rule="evenodd" clip-rule="evenodd" d="M5.71716 0.495852C7.27385 0.653788 8.48875 1.96792 8.48875 3.56624V5.8813L8.47239 6.19566C8.32507 7.64875 7.17025 8.8034 5.71716 8.95083L5.40193 8.96806H3.08682C1.48839 8.96806 0.174197 7.75243 0.0163643 6.19566L0 5.8813V3.56624C4.97183e-08 1.86147 1.38202 0.479488 3.08682 0.479488H5.40193L5.71716 0.495852Z" fill="var(--fill-0, #0088FE)"/>
</g>
</svg>
