<svg preserveAspectRatio="none" width="100%" height="100%" overflow="visible" style="display: block;" viewBox="0 0 21.0901 21.1095" fill="none" xmlns="http://www.w3.org/2000/svg">
<path id="vector" d="M3.1515 6.21085C6.93601 2.42634 12.6341 1.98757 15.8781 5.23136C19.122 8.47525 18.6831 14.1734 14.8986 17.9579C11.114 21.7423 5.41682 22.1803 2.17298 18.9364C-1.07075 15.6926 -0.632823 9.99536 3.1515 6.21085ZM6.38392 9.66983L4.3097 11.4833V14.9198H6.3849V11.4784H11.4181V14.9198H13.4972V11.4833L11.4181 9.66983H6.38392ZM8.35267 1.76358C11.8493 -0.653532 16.3193 -0.620213 19.0148 2.07511C21.698 4.7583 21.7434 9.19986 19.3595 12.6894C19.599 11.4344 19.6197 10.1649 19.4054 8.94718C19.9013 6.7395 19.3741 4.55677 17.9542 3.13663C16.5253 1.7077 14.3235 1.18247 12.1017 1.69425C10.8807 1.48747 9.60877 1.51589 8.35267 1.76358Z" fill="var(--fill-0, #AFBFCD)"/>
</svg>
