<svg preserveAspectRatio="none" width="100%" height="100%" overflow="visible" style="display: block;" viewBox="0 0 20.5615 18.1284" fill="none" xmlns="http://www.w3.org/2000/svg">
<path id="vector" d="M8.69043 0.658675C9.56911 -0.219421 10.9936 -0.219696 11.8721 0.658675L20.5615 9.34813L19.501 10.4087L18.9375 9.84618L17.5771 15.2886C17.1597 16.9577 15.659 18.1283 13.9385 18.1284H6.62305C4.90255 18.1283 3.40185 16.9576 2.98438 15.2886L1.62402 9.84618L1.06152 10.4087L0 9.34813L8.69043 0.658675ZM10.2998 7.00047C8.64295 7.00047 7.2998 8.34362 7.2998 10.0005C7.29996 11.6572 8.64305 13.0005 10.2998 13.0005C11.9565 13.0004 13.2996 11.6571 13.2998 10.0005C13.2998 8.34368 11.9566 7.00058 10.2998 7.00047Z" fill="var(--fill-0, #0088FE)"/>
</svg>
